<svg width="315" height="116" viewBox="0 0 315 116" fill="none" xmlns="http://www.w3.org/2000/svg">
<rect width="315" height="116" rx="40" fill="#E00C00"/>
<path d="M53.5365 40.5022V45.0305H44.3156L44.8661 62.0459L47.7562 62.4576L47.481 47.5005H53.8118L53.5365 63.967L55.4633 64.1042L56.1514 41.7372H61.9317L60.9683 65.202H62.4822L65.2347 38.0322L71.5655 38.1695L67.4368 66.5742H69.5011L75.2814 35.5623H82.1627C82.2728 35.5623 77.0706 56.9688 74.4557 67.672H75.8319C75.8319 67.672 85.6526 39.6923 86.1539 38.7183C86.6552 37.7444 87.1543 36.6423 87.8054 36.1111C88.4565 35.58 88.924 35.3836 89.7322 35.1506C90.5403 34.9176 91.756 34.9848 93.0352 35.1506C94.3143 35.3164 99.4152 37.3595 99.7788 38.1695C100.143 38.9794 99.9959 39.9209 99.7788 40.365C99.5618 40.8091 99.39 41.0925 98.9531 41.3256C98.5162 41.5586 97.8029 41.4494 97.3016 41.3256C96.8003 41.2017 93.2332 39.481 92.4847 39.4045C91.7361 39.3279 90.8652 39.2499 90.5579 39.4045C90.2507 39.559 90.0135 39.7612 89.8698 39.9533C89.7261 40.1454 89.5945 40.5022 89.5945 40.5022C89.5945 40.5022 79.0858 69.9914 78.7221 70.5536C78.3584 71.1159 78.1635 71.3614 77.7095 71.638C77.2555 71.9146 76.7461 72.0497 75.9696 71.9258C75.193 71.802 43.7651 66.2998 42.9393 66.1626C42.1136 66.0253 41.7551 65.7996 41.4254 65.4765C41.0957 65.1533 41.0126 64.9276 40.8749 64.3787C40.7373 63.8298 39.7739 42.2861 40.0492 41.6C40.3244 40.9139 40.4621 40.7766 41.1502 40.365C41.8383 39.9534 53.5365 40.5022 53.5365 40.5022Z" fill="#FFF94F"/>
<ellipse cx="49.82" cy="72.508" rx="4.20863" ry="4.1916" fill="#FFF94F"/>
<ellipse cx="67.6261" cy="76.7014" rx="4.31655" ry="4.29907" fill="#FFF94F"/>
<path d="M116.92 51.7153C119.507 51.7153 121.76 52.222 123.68 53.2353C125.6 54.2486 127.093 55.742 128.16 57.7153C129.227 59.6886 129.76 62.0753 129.76 64.8753V80.1953H123.28V73.4753H110.48V80.1953H104.08V64.8753C104.08 62.0753 104.613 59.6886 105.68 57.7153C106.747 55.742 108.24 54.2486 110.16 53.2353C112.08 52.222 114.333 51.7153 116.92 51.7153ZM123.28 68.2753V64.2753C123.28 61.9553 122.707 60.2086 121.56 59.0353C120.413 57.8353 118.853 57.2353 116.88 57.2353C114.88 57.2353 113.307 57.8353 112.16 59.0353C111.04 60.2086 110.48 61.9553 110.48 64.2753V68.2753H123.28ZM150.796 80.1953L145.396 72.3953H145.076H139.436V80.1953H132.956V52.1953H145.076C147.556 52.1953 149.703 52.6086 151.516 53.4353C153.356 54.262 154.769 55.4353 155.756 56.9553C156.743 58.4753 157.236 60.2753 157.236 62.3553C157.236 64.4353 156.729 66.2353 155.716 67.7553C154.729 69.2486 153.316 70.3953 151.476 71.1953L157.756 80.1953H150.796ZM150.676 62.3553C150.676 60.782 150.169 59.582 149.156 58.7553C148.143 57.902 146.663 57.4753 144.716 57.4753H139.436V67.2353H144.716C146.663 67.2353 148.143 66.8086 149.156 65.9553C150.169 65.102 150.676 63.902 150.676 62.3553ZM171.77 51.7153C174.357 51.7153 176.61 52.222 178.53 53.2353C180.45 54.2486 181.943 55.742 183.01 57.7153C184.077 59.6886 184.61 62.0753 184.61 64.8753V80.1953H178.13V73.4753H165.33V80.1953H158.93V64.8753C158.93 62.0753 159.463 59.6886 160.53 57.7153C161.597 55.742 163.09 54.2486 165.01 53.2353C166.93 52.222 169.183 51.7153 171.77 51.7153ZM178.13 68.2753V64.2753C178.13 61.9553 177.557 60.2086 176.41 59.0353C175.263 57.8353 173.703 57.2353 171.73 57.2353C169.73 57.2353 168.157 57.8353 167.01 59.0353C165.89 60.2086 165.33 61.9553 165.33 64.2753V68.2753H178.13ZM206.726 65.7553H212.646V80.1953H207.766V78.5153C205.819 79.9553 203.313 80.6753 200.246 80.6753C197.659 80.6753 195.286 80.1153 193.126 78.9953C190.966 77.8753 189.246 76.2486 187.966 74.1153C186.686 71.9553 186.046 69.3953 186.046 66.4353C186.046 63.582 186.699 61.0486 188.006 58.8353C189.339 56.5953 191.179 54.8486 193.526 53.5953C195.873 52.342 198.513 51.7153 201.446 51.7153C203.899 51.7153 206.126 52.1286 208.126 52.9553C210.126 53.782 211.806 54.982 213.166 56.5553L209.006 60.3953C207.006 58.2886 204.593 57.2353 201.766 57.2353C199.979 57.2353 198.393 57.622 197.006 58.3953C195.619 59.142 194.539 60.2086 193.766 61.5953C192.993 62.982 192.606 64.582 192.606 66.3953C192.606 68.2886 192.979 69.902 193.726 71.2353C194.499 72.5686 195.526 73.582 196.806 74.2753C198.086 74.942 199.486 75.2753 201.006 75.2753C203.273 75.2753 205.179 74.6353 206.726 73.3553V65.7553ZM228.065 51.7153C230.652 51.7153 232.905 52.222 234.825 53.2353C236.745 54.2486 238.239 55.742 239.305 57.7153C240.372 59.6886 240.905 62.0753 240.905 64.8753V80.1953H234.425V73.4753H221.625V80.1953H215.225V64.8753C215.225 62.0753 215.759 59.6886 216.825 57.7153C217.892 55.742 219.385 54.2486 221.305 53.2353C223.225 52.222 225.479 51.7153 228.065 51.7153ZM234.425 68.2753V64.2753C234.425 61.9553 233.852 60.2086 232.705 59.0353C231.559 57.8353 229.999 57.2353 228.025 57.2353C226.025 57.2353 224.452 57.8353 223.305 59.0353C222.185 60.2086 221.625 61.9553 221.625 64.2753V68.2753H234.425ZM231.065 50.0353C230.345 50.0353 229.705 49.902 229.145 49.6353C228.612 49.342 228.012 48.9553 227.345 48.4753C226.919 48.1553 226.559 47.9153 226.265 47.7553C225.999 47.5953 225.732 47.5153 225.465 47.5153C224.905 47.5153 224.452 47.7153 224.105 48.1153C223.759 48.4886 223.572 49.0353 223.545 49.7553H220.385C220.439 47.9686 220.879 46.5553 221.705 45.5153C222.559 44.4486 223.679 43.9153 225.065 43.9153C225.759 43.9153 226.372 44.062 226.905 44.3553C227.465 44.622 228.092 45.0086 228.785 45.5153C229.212 45.8353 229.559 46.0753 229.825 46.2353C230.119 46.3953 230.399 46.4753 230.665 46.4753C231.199 46.4753 231.639 46.2886 231.985 45.9153C232.359 45.5153 232.559 44.982 232.585 44.3153H235.745C235.692 46.0486 235.239 47.4353 234.385 48.4753C233.559 49.5153 232.452 50.0353 231.065 50.0353ZM257.661 80.6753C254.755 80.6753 252.128 80.0486 249.781 78.7953C247.461 77.542 245.635 75.822 244.301 73.6353C242.995 71.422 242.341 68.942 242.341 66.1953C242.341 63.4486 242.995 60.982 244.301 58.7953C245.635 56.582 247.461 54.8486 249.781 53.5953C252.128 52.342 254.755 51.7153 257.661 51.7153C260.568 51.7153 263.181 52.342 265.501 53.5953C267.821 54.8486 269.648 56.582 270.981 58.7953C272.315 60.982 272.981 63.4486 272.981 66.1953C272.981 68.942 272.315 71.422 270.981 73.6353C269.648 75.822 267.821 77.542 265.501 78.7953C263.181 80.0486 260.568 80.6753 257.661 80.6753ZM257.661 75.1553C259.315 75.1553 260.808 74.782 262.141 74.0353C263.475 73.262 264.515 72.1953 265.261 70.8353C266.035 69.4753 266.421 67.9286 266.421 66.1953C266.421 64.462 266.035 62.9153 265.261 61.5553C264.515 60.1953 263.475 59.142 262.141 58.3953C260.808 57.622 259.315 57.2353 257.661 57.2353C256.008 57.2353 254.515 57.622 253.181 58.3953C251.848 59.142 250.795 60.1953 250.021 61.5553C249.275 62.9153 248.901 64.462 248.901 66.1953C248.901 67.9286 249.275 69.4753 250.021 70.8353C250.795 72.1953 251.848 73.262 253.181 74.0353C254.515 74.782 256.008 75.1553 257.661 75.1553Z" fill="#E6E6EA"/>
<path d="M122.645 37.9653V45.1953H121.46V40.5253C121.46 40.3386 121.47 40.137 121.49 39.9203L119.305 44.0253C119.202 44.222 119.043 44.3203 118.83 44.3203H118.64C118.427 44.3203 118.268 44.222 118.165 44.0253L115.955 39.9053C115.965 40.0153 115.973 40.1236 115.98 40.2303C115.987 40.337 115.99 40.4353 115.99 40.5253V45.1953H114.805V37.9653H115.82C115.88 37.9653 115.932 37.967 115.975 37.9703C116.018 37.9736 116.057 37.982 116.09 37.9953C116.127 38.0086 116.158 38.0303 116.185 38.0603C116.215 38.0903 116.243 38.1303 116.27 38.1803L118.435 42.1953C118.492 42.302 118.543 42.412 118.59 42.5253C118.64 42.6386 118.688 42.7553 118.735 42.8753C118.782 42.752 118.83 42.6336 118.88 42.5203C118.93 42.4036 118.983 42.292 119.04 42.1853L121.175 38.1803C121.202 38.1303 121.23 38.0903 121.26 38.0603C121.29 38.0303 121.322 38.0086 121.355 37.9953C121.392 37.982 121.432 37.9736 121.475 37.9703C121.518 37.967 121.57 37.9653 121.63 37.9653H122.645ZM128.608 39.0353V41.0403H131.138V42.0753H128.608V44.1203H131.818V45.1953H127.258V37.9653H131.818V39.0353H128.608ZM138.195 41.4053C138.448 41.4053 138.668 41.3736 138.855 41.3103C139.045 41.247 139.2 41.1603 139.32 41.0503C139.443 40.937 139.535 40.8036 139.595 40.6503C139.655 40.497 139.685 40.3286 139.685 40.1453C139.685 39.7786 139.563 39.497 139.32 39.3003C139.08 39.1036 138.712 39.0053 138.215 39.0053H137.355V41.4053H138.195ZM141.655 45.1953H140.44C140.21 45.1953 140.043 45.1053 139.94 44.9253L138.42 42.6103C138.363 42.5236 138.3 42.462 138.23 42.4253C138.163 42.3886 138.063 42.3703 137.93 42.3703H137.355V45.1953H136.01V37.9653H138.215C138.705 37.9653 139.125 38.017 139.475 38.1203C139.828 38.2203 140.117 38.362 140.34 38.5453C140.567 38.7286 140.733 38.9486 140.84 39.2053C140.947 39.4586 141 39.7386 141 40.0453C141 40.2886 140.963 40.5186 140.89 40.7353C140.82 40.952 140.717 41.1486 140.58 41.3253C140.447 41.502 140.28 41.657 140.08 41.7903C139.883 41.9236 139.658 42.0286 139.405 42.1053C139.492 42.1553 139.572 42.2153 139.645 42.2853C139.718 42.352 139.785 42.432 139.845 42.5253L141.655 45.1953ZM150.303 43.4903C150.377 43.4903 150.442 43.5186 150.498 43.5753L151.028 44.1503C150.735 44.5136 150.373 44.792 149.943 44.9853C149.517 45.1786 149.003 45.2753 148.403 45.2753C147.867 45.2753 147.383 45.1836 146.953 45.0003C146.527 44.817 146.162 44.562 145.858 44.2353C145.555 43.9086 145.322 43.5186 145.158 43.0653C144.998 42.612 144.918 42.117 144.918 41.5803C144.918 41.037 145.005 40.5403 145.178 40.0903C145.352 39.637 145.595 39.247 145.908 38.9203C146.225 38.5936 146.602 38.3403 147.038 38.1603C147.475 37.977 147.958 37.8853 148.488 37.8853C149.015 37.8853 149.482 37.972 149.888 38.1453C150.298 38.3186 150.647 38.5453 150.933 38.8253L150.483 39.4503C150.457 39.4903 150.422 39.5253 150.378 39.5553C150.338 39.5853 150.282 39.6003 150.208 39.6003C150.158 39.6003 150.107 39.587 150.053 39.5603C150 39.5303 149.942 39.4953 149.878 39.4553C149.815 39.412 149.742 39.3653 149.658 39.3153C149.575 39.2653 149.478 39.2203 149.368 39.1803C149.258 39.137 149.13 39.102 148.983 39.0753C148.84 39.0453 148.673 39.0303 148.483 39.0303C148.16 39.0303 147.863 39.0886 147.593 39.2053C147.327 39.3186 147.097 39.4853 146.903 39.7053C146.71 39.922 146.56 40.1886 146.453 40.5053C146.347 40.8186 146.293 41.177 146.293 41.5803C146.293 41.987 146.35 42.3486 146.463 42.6653C146.58 42.982 146.737 43.2486 146.933 43.4653C147.13 43.682 147.362 43.8486 147.628 43.9653C147.895 44.0786 148.182 44.1353 148.488 44.1353C148.672 44.1353 148.837 44.1253 148.983 44.1053C149.133 44.0853 149.27 44.0536 149.393 44.0103C149.52 43.967 149.638 43.912 149.748 43.8453C149.862 43.7753 149.973 43.6903 150.083 43.5903C150.117 43.5603 150.152 43.537 150.188 43.5203C150.225 43.5003 150.263 43.4903 150.303 43.4903ZM158.77 42.4653L157.89 40.0603C157.846 39.9536 157.801 39.827 157.755 39.6803C157.708 39.5336 157.661 39.3753 157.615 39.2053C157.571 39.3753 157.526 39.5353 157.48 39.6853C157.433 39.832 157.388 39.9603 157.345 40.0703L156.47 42.4653H158.77ZM161.145 45.1953H160.105C159.988 45.1953 159.893 45.167 159.82 45.1103C159.746 45.0503 159.691 44.977 159.655 44.8903L159.115 43.4153H156.12L155.58 44.8903C155.553 44.967 155.501 45.037 155.425 45.1003C155.348 45.1636 155.253 45.1953 155.14 45.1953H154.09L156.935 37.9653H158.305L161.145 45.1953ZM171.313 41.5803C171.313 42.1103 171.225 42.597 171.048 43.0403C170.871 43.4836 170.623 43.8653 170.303 44.1853C169.983 44.5053 169.598 44.7536 169.148 44.9303C168.698 45.107 168.198 45.1953 167.648 45.1953H164.893V37.9653H167.648C168.198 37.9653 168.698 38.0553 169.148 38.2353C169.598 38.412 169.983 38.6603 170.303 38.9803C170.623 39.297 170.871 39.677 171.048 40.1203C171.225 40.5636 171.313 41.0503 171.313 41.5803ZM169.933 41.5803C169.933 41.1836 169.88 40.8286 169.773 40.5153C169.67 40.1986 169.518 39.932 169.318 39.7153C169.121 39.4953 168.881 39.327 168.598 39.2103C168.318 39.0936 168.001 39.0353 167.648 39.0353H166.243V44.1253H167.648C168.001 44.1253 168.318 44.067 168.598 43.9503C168.881 43.8336 169.121 43.667 169.318 43.4503C169.518 43.2303 169.67 42.9636 169.773 42.6503C169.88 42.3336 169.933 41.977 169.933 41.5803ZM176.85 45.1953H175.5V37.9653H176.85V45.1953ZM187.564 37.9653V45.1953H186.874C186.767 45.1953 186.677 45.1786 186.604 45.1453C186.534 45.1086 186.466 45.0486 186.399 44.9653L182.624 40.1453C182.644 40.3653 182.654 40.5686 182.654 40.7553V45.1953H181.469V37.9653H182.174C182.231 37.9653 182.279 37.9686 182.319 37.9753C182.362 37.9786 182.399 37.9886 182.429 38.0053C182.462 38.0186 182.494 38.0403 182.524 38.0703C182.554 38.097 182.587 38.1336 182.624 38.1803L186.414 43.0203C186.404 42.9036 186.396 42.7886 186.389 42.6753C186.382 42.562 186.379 42.457 186.379 42.3603V37.9653H187.564ZM198.269 37.9653V45.1953H196.919V42.0353H193.524V45.1953H192.174V37.9653H193.524V41.0753H196.919V37.9653H198.269ZM209.774 41.5803C209.774 42.1103 209.686 42.602 209.509 43.0553C209.336 43.5053 209.089 43.8953 208.769 44.2253C208.449 44.5553 208.064 44.8136 207.614 45.0003C207.164 45.1836 206.664 45.2753 206.114 45.2753C205.568 45.2753 205.069 45.1836 204.619 45.0003C204.169 44.8136 203.783 44.5553 203.459 44.2253C203.139 43.8953 202.891 43.5053 202.714 43.0553C202.538 42.602 202.449 42.1103 202.449 41.5803C202.449 41.0503 202.538 40.5603 202.714 40.1103C202.891 39.657 203.139 39.2653 203.459 38.9353C203.783 38.6053 204.169 38.3486 204.619 38.1653C205.069 37.9786 205.568 37.8853 206.114 37.8853C206.481 37.8853 206.826 37.9286 207.149 38.0153C207.473 38.0986 207.769 38.2186 208.039 38.3753C208.309 38.5286 208.551 38.717 208.764 38.9403C208.981 39.1603 209.164 39.407 209.314 39.6803C209.464 39.9536 209.578 40.2503 209.654 40.5703C209.734 40.8903 209.774 41.227 209.774 41.5803ZM208.399 41.5803C208.399 41.1836 208.346 40.8286 208.239 40.5153C208.133 40.1986 207.981 39.9303 207.784 39.7103C207.588 39.4903 207.348 39.322 207.064 39.2053C206.784 39.0886 206.468 39.0303 206.114 39.0303C205.761 39.0303 205.443 39.0886 205.159 39.2053C204.879 39.322 204.639 39.4903 204.439 39.7103C204.243 39.9303 204.091 40.1986 203.984 40.5153C203.878 40.8286 203.824 41.1836 203.824 41.5803C203.824 41.977 203.878 42.3336 203.984 42.6503C204.091 42.9636 204.243 43.2303 204.439 43.4503C204.639 43.667 204.879 43.8336 205.159 43.9503C205.443 44.067 205.761 44.1253 206.114 44.1253C206.468 44.1253 206.784 44.067 207.064 43.9503C207.348 43.8336 207.588 43.667 207.784 43.4503C207.981 43.2303 208.133 42.9636 208.239 42.6503C208.346 42.3336 208.399 41.977 208.399 41.5803Z" fill="#E6E6EA"/>
</svg>
