<svg width="55" height="42" viewBox="0 0 55 42" fill="none" xmlns="http://www.w3.org/2000/svg">
<g clip-path="url(#clip0_47_142)">
<path d="M12.3094 5.02376V9.15828H3.92437L4.42497 24.6941L7.05311 25.0699L6.80281 11.4135H12.5597L12.3094 26.4481L14.0615 26.5734L14.6872 6.15136H19.9435L19.0675 27.5757H20.4441L22.9471 2.76857L28.704 2.89385L24.9495 28.8286H26.8267L32.083 0.513372H38.3405C38.4406 0.513372 33.71 20.0584 31.3321 29.8309H32.5836C32.5836 29.8309 41.514 4.28425 41.9698 3.39501C42.4257 2.50577 42.8796 1.49949 43.4716 1.01453C44.0637 0.529563 44.4888 0.350241 45.2237 0.137507C45.9586 -0.0752284 47.0641 -0.0138955 48.2273 0.137507C49.3905 0.288909 54.0289 2.15434 54.3596 2.89385C54.6904 3.63337 54.557 4.49296 54.3596 4.89847C54.1623 5.30398 54.0061 5.56269 53.6087 5.77549C53.2114 5.9883 52.5628 5.88856 52.107 5.77549C51.6511 5.66242 48.4074 4.09134 47.7267 4.02145C47.0461 3.95156 46.254 3.88034 45.9746 4.02145C45.6952 4.16257 45.4796 4.34721 45.3489 4.52261C45.2182 4.698 45.0986 5.02376 45.0986 5.02376C45.0986 5.02376 35.5425 31.9486 35.2118 32.462C34.881 32.9753 34.7038 33.1995 34.291 33.452C33.8781 33.7046 33.4149 33.8279 32.7088 33.7148C32.0026 33.6018 3.42377 28.578 2.67287 28.4527C1.92198 28.3274 1.59604 28.1214 1.29623 27.8263C0.996415 27.5312 0.920781 27.3251 0.79563 26.824C0.670479 26.3228 -0.20556 6.65249 0.0447326 6.02607C0.295025 5.39964 0.420188 5.27432 1.04593 4.89847C1.67167 4.52262 12.3094 5.02376 12.3094 5.02376Z" fill="#FFF94F"/>
<circle cx="8.92964" cy="34.248" r="3.8271" fill="#FFF94F"/>
<circle cx="25.1215" cy="38.0746" r="3.92523" fill="#FFF94F"/>
</g>
<defs>
<clipPath id="clip0_47_142">
<rect width="54.5607" height="41.9999" fill="white"/>
</clipPath>
</defs>
</svg>
