<svg width="691" height="208" viewBox="0 0 691 208" fill="none" xmlns="http://www.w3.org/2000/svg">
<rect width="691" height="208" rx="60" fill="#E00C00"/>
<path d="M90.8937 63.679V74.1137H69.8492L71.1056 113.323L77.7016 114.272L77.0734 79.8054H91.5219L90.8937 117.75L95.291 118.066L96.8615 66.5248H110.054L107.855 120.596H111.31L117.592 57.9873L132.04 58.3035L122.617 123.758H127.329L140.521 52.2957H156.226C156.477 52.2957 144.604 101.624 138.636 126.287H141.777C141.777 126.287 164.19 61.8126 165.334 59.5683C166.478 57.3241 167.618 54.7844 169.104 53.5605C170.589 52.3365 171.656 51.8839 173.501 51.347C175.345 50.8101 178.12 50.9649 181.039 51.347C183.958 51.7291 195.6 56.4371 196.43 58.3035C197.26 60.1699 196.925 62.3394 196.43 63.3628C195.934 64.3862 195.542 65.0391 194.545 65.5762C193.548 66.1133 191.92 65.8616 190.776 65.5762C189.632 65.2909 181.491 61.3258 179.783 61.1494C178.074 60.973 176.087 60.7932 175.385 61.1494C174.684 61.5055 174.143 61.9715 173.815 62.4142C173.487 62.8569 173.187 63.679 173.187 63.679C173.187 63.679 149.203 131.632 148.373 132.928C147.543 134.223 147.098 134.789 146.062 135.427C145.026 136.064 143.864 136.375 142.091 136.09C140.319 135.804 68.5929 123.125 66.7083 122.809C64.8237 122.493 64.0057 121.973 63.2532 121.228C62.5008 120.484 62.3109 119.963 61.9968 118.699C61.6827 117.434 59.4841 67.7896 60.1123 66.2086C60.7404 64.6277 61.0546 64.3114 62.625 63.3628C64.1955 62.4142 90.8937 63.679 90.8937 63.679Z" fill="#FFF94F"/>
<ellipse cx="82.4123" cy="137.435" rx="9.60512" ry="9.65887" fill="#FFF94F"/>
<ellipse cx="123.049" cy="147.094" rx="9.85141" ry="9.90653" fill="#FFF94F"/>
<path d="M236.8 85.8C243.267 85.8 248.9 87.0667 253.7 89.6C258.5 92.1333 262.233 95.8667 264.9 100.8C267.567 105.733 268.9 111.7 268.9 118.7V157H252.7V140.2H220.7V157H204.7V118.7C204.7 111.7 206.033 105.733 208.7 100.8C211.367 95.8667 215.1 92.1333 219.9 89.6C224.7 87.0667 230.333 85.8 236.8 85.8ZM252.7 127.2V117.2C252.7 111.4 251.267 107.033 248.4 104.1C245.533 101.1 241.633 99.6 236.7 99.6C231.7 99.6 227.767 101.1 224.9 104.1C222.1 107.033 220.7 111.4 220.7 117.2V127.2H252.7ZM321.49 157L307.99 137.5H307.19H293.09V157H276.89V87H307.19C313.39 87 318.757 88.0333 323.29 90.1C327.89 92.1667 331.423 95.1 333.89 98.9C336.357 102.7 337.59 107.2 337.59 112.4C337.59 117.6 336.323 122.1 333.79 125.9C331.323 129.633 327.79 132.5 323.19 134.5L338.89 157H321.49ZM321.19 112.4C321.19 108.467 319.923 105.467 317.39 103.4C314.857 101.267 311.157 100.2 306.29 100.2H293.09V124.6H306.29C311.157 124.6 314.857 123.533 317.39 121.4C319.923 119.267 321.19 116.267 321.19 112.4ZM373.925 85.8C380.392 85.8 386.025 87.0667 390.825 89.6C395.625 92.1333 399.358 95.8667 402.025 100.8C404.692 105.733 406.025 111.7 406.025 118.7V157H389.825V140.2H357.825V157H341.825V118.7C341.825 111.7 343.158 105.733 345.825 100.8C348.492 95.8667 352.225 92.1333 357.025 89.6C361.825 87.0667 367.458 85.8 373.925 85.8ZM389.825 127.2V117.2C389.825 111.4 388.392 107.033 385.525 104.1C382.658 101.1 378.758 99.6 373.825 99.6C368.825 99.6 364.892 101.1 362.025 104.1C359.225 107.033 357.825 111.4 357.825 117.2V127.2H389.825ZM461.315 120.9H476.115V157H463.915V152.8C459.048 156.4 452.782 158.2 445.115 158.2C438.648 158.2 432.715 156.8 427.315 154C421.915 151.2 417.615 147.133 414.415 141.8C411.215 136.4 409.615 130 409.615 122.6C409.615 115.467 411.248 109.133 414.515 103.6C417.848 98 422.448 93.6333 428.315 90.5C434.182 87.3667 440.782 85.8 448.115 85.8C454.248 85.8 459.815 86.8333 464.815 88.9C469.815 90.9667 474.015 93.9667 477.415 97.9L467.015 107.5C462.015 102.233 455.982 99.6 448.915 99.6C444.448 99.6 440.482 100.567 437.015 102.5C433.548 104.367 430.848 107.033 428.915 110.5C426.982 113.967 426.015 117.967 426.015 122.5C426.015 127.233 426.948 131.267 428.815 134.6C430.748 137.933 433.315 140.467 436.515 142.2C439.715 143.867 443.215 144.7 447.015 144.7C452.682 144.7 457.448 143.1 461.315 139.9V120.9ZM514.663 85.8C521.13 85.8 526.763 87.0667 531.563 89.6C536.363 92.1333 540.097 95.8667 542.763 100.8C545.43 105.733 546.763 111.7 546.763 118.7V157H530.563V140.2H498.563V157H482.563V118.7C482.563 111.7 483.897 105.733 486.563 100.8C489.23 95.8667 492.963 92.1333 497.763 89.6C502.563 87.0667 508.197 85.8 514.663 85.8ZM530.563 127.2V117.2C530.563 111.4 529.13 107.033 526.263 104.1C523.397 101.1 519.497 99.6 514.563 99.6C509.563 99.6 505.63 101.1 502.763 104.1C499.963 107.033 498.563 111.4 498.563 117.2V127.2H530.563ZM522.163 81.6C520.363 81.6 518.763 81.2667 517.363 80.6C516.03 79.8667 514.53 78.9 512.863 77.7C511.797 76.9 510.897 76.3 510.163 75.9C509.497 75.5 508.83 75.3 508.163 75.3C506.763 75.3 505.63 75.8 504.763 76.8C503.897 77.7333 503.43 79.1 503.363 80.9H495.463C495.597 76.4333 496.697 72.9 498.763 70.3C500.897 67.6333 503.697 66.3 507.163 66.3C508.897 66.3 510.43 66.6667 511.763 67.4C513.163 68.0667 514.73 69.0333 516.463 70.3C517.53 71.1 518.397 71.7 519.063 72.1C519.797 72.5 520.497 72.7 521.163 72.7C522.497 72.7 523.597 72.2333 524.463 71.3C525.397 70.3 525.897 68.9667 525.963 67.3H533.863C533.73 71.6333 532.597 75.1 530.463 77.7C528.397 80.3 525.63 81.6 522.163 81.6ZM588.653 158.2C581.386 158.2 574.82 156.633 568.953 153.5C563.153 150.367 558.586 146.067 555.253 140.6C551.986 135.067 550.353 128.867 550.353 122C550.353 115.133 551.986 108.967 555.253 103.5C558.586 97.9667 563.153 93.6333 568.953 90.5C574.82 87.3667 581.386 85.8 588.653 85.8C595.92 85.8 602.453 87.3667 608.253 90.5C614.053 93.6333 618.62 97.9667 621.953 103.5C625.286 108.967 626.953 115.133 626.953 122C626.953 128.867 625.286 135.067 621.953 140.6C618.62 146.067 614.053 150.367 608.253 153.5C602.453 156.633 595.92 158.2 588.653 158.2ZM588.653 144.4C592.786 144.4 596.52 143.467 599.853 141.6C603.186 139.667 605.786 137 607.653 133.6C609.586 130.2 610.553 126.333 610.553 122C610.553 117.667 609.586 113.8 607.653 110.4C605.786 107 603.186 104.367 599.853 102.5C596.52 100.567 592.786 99.6 588.653 99.6C584.52 99.6 580.786 100.567 577.453 102.5C574.12 104.367 571.486 107 569.553 110.4C567.686 113.8 566.753 117.667 566.753 122C566.753 126.333 567.686 130.2 569.553 133.6C571.486 137 574.12 139.667 577.453 141.6C580.786 143.467 584.52 144.4 588.653 144.4Z" fill="#E6E6EA"/>
<path d="M249.29 56.54V71H246.92V61.66C246.92 61.2867 246.94 60.8833 246.98 60.45L242.61 68.66C242.403 69.0533 242.087 69.25 241.66 69.25H241.28C240.853 69.25 240.537 69.0533 240.33 68.66L235.91 60.42C235.93 60.64 235.947 60.8567 235.96 61.07C235.973 61.2833 235.98 61.48 235.98 61.66V71H233.61V56.54H235.64C235.76 56.54 235.863 56.5433 235.95 56.55C236.037 56.5567 236.113 56.5733 236.18 56.6C236.253 56.6267 236.317 56.67 236.37 56.73C236.43 56.79 236.487 56.87 236.54 56.97L240.87 65C240.983 65.2133 241.087 65.4333 241.18 65.66C241.28 65.8867 241.377 66.12 241.47 66.36C241.563 66.1133 241.66 65.8767 241.76 65.65C241.86 65.4167 241.967 65.1933 242.08 64.98L246.35 56.97C246.403 56.87 246.46 56.79 246.52 56.73C246.58 56.67 246.643 56.6267 246.71 56.6C246.783 56.5733 246.863 56.5567 246.95 56.55C247.037 56.5433 247.14 56.54 247.26 56.54H249.29ZM264.816 58.68V62.69H269.876V64.76H264.816V68.85H271.236V71H262.116V56.54H271.236V58.68H264.816ZM287.59 63.42C288.097 63.42 288.537 63.3567 288.91 63.23C289.29 63.1033 289.6 62.93 289.84 62.71C290.087 62.4833 290.27 62.2167 290.39 61.91C290.51 61.6033 290.57 61.2667 290.57 60.9C290.57 60.1667 290.327 59.6033 289.84 59.21C289.36 58.8167 288.623 58.62 287.63 58.62H285.91V63.42H287.59ZM294.51 71H292.08C291.62 71 291.287 70.82 291.08 70.46L288.04 65.83C287.927 65.6567 287.8 65.5333 287.66 65.46C287.527 65.3867 287.327 65.35 287.06 65.35H285.91V71H283.22V56.54H287.63C288.61 56.54 289.45 56.6433 290.15 56.85C290.857 57.05 291.433 57.3333 291.88 57.7C292.333 58.0667 292.667 58.5067 292.88 59.02C293.093 59.5267 293.2 60.0867 293.2 60.7C293.2 61.1867 293.127 61.6467 292.98 62.08C292.84 62.5133 292.633 62.9067 292.36 63.26C292.093 63.6133 291.76 63.9233 291.36 64.19C290.967 64.4567 290.517 64.6667 290.01 64.82C290.183 64.92 290.343 65.04 290.49 65.18C290.637 65.3133 290.77 65.4733 290.89 65.66L294.51 71ZM315.406 67.59C315.553 67.59 315.683 67.6467 315.796 67.76L316.856 68.91C316.27 69.6367 315.546 70.1933 314.686 70.58C313.833 70.9667 312.806 71.16 311.606 71.16C310.533 71.16 309.566 70.9767 308.706 70.61C307.853 70.2433 307.123 69.7333 306.516 69.08C305.91 68.4267 305.443 67.6467 305.116 66.74C304.796 65.8333 304.636 64.8433 304.636 63.77C304.636 62.6833 304.81 61.69 305.156 60.79C305.503 59.8833 305.99 59.1033 306.616 58.45C307.25 57.7967 308.003 57.29 308.876 56.93C309.75 56.5633 310.716 56.38 311.776 56.38C312.83 56.38 313.763 56.5533 314.576 56.9C315.396 57.2467 316.093 57.7 316.666 58.26L315.766 59.51C315.713 59.59 315.643 59.66 315.556 59.72C315.476 59.78 315.363 59.81 315.216 59.81C315.116 59.81 315.013 59.7833 314.906 59.73C314.8 59.67 314.683 59.6 314.556 59.52C314.43 59.4333 314.283 59.34 314.116 59.24C313.95 59.14 313.756 59.05 313.536 58.97C313.316 58.8833 313.06 58.8133 312.766 58.76C312.48 58.7 312.146 58.67 311.766 58.67C311.12 58.67 310.526 58.7867 309.986 59.02C309.453 59.2467 308.993 59.58 308.606 60.02C308.22 60.4533 307.92 60.9867 307.706 61.62C307.493 62.2467 307.386 62.9633 307.386 63.77C307.386 64.5833 307.5 65.3067 307.726 65.94C307.96 66.5733 308.273 67.1067 308.666 67.54C309.06 67.9733 309.523 68.3067 310.056 68.54C310.59 68.7667 311.163 68.88 311.776 68.88C312.143 68.88 312.473 68.86 312.766 68.82C313.066 68.78 313.34 68.7167 313.586 68.63C313.84 68.5433 314.076 68.4333 314.296 68.3C314.523 68.16 314.746 67.99 314.966 67.79C315.033 67.73 315.103 67.6833 315.176 67.65C315.25 67.61 315.326 67.59 315.406 67.59ZM335.939 65.54L334.179 60.73C334.092 60.5167 334.002 60.2633 333.909 59.97C333.816 59.6767 333.722 59.36 333.629 59.02C333.542 59.36 333.452 59.68 333.359 59.98C333.266 60.2733 333.176 60.53 333.089 60.75L331.339 65.54H335.939ZM340.689 71H338.609C338.376 71 338.186 70.9433 338.039 70.83C337.892 70.71 337.782 70.5633 337.709 70.39L336.629 67.44H330.639L329.559 70.39C329.506 70.5433 329.402 70.6833 329.249 70.81C329.096 70.9367 328.906 71 328.679 71H326.579L332.269 56.54H335.009L340.689 71ZM364.626 63.77C364.626 64.83 364.449 65.8033 364.096 66.69C363.742 67.5767 363.246 68.34 362.606 68.98C361.966 69.62 361.196 70.1167 360.296 70.47C359.396 70.8233 358.396 71 357.296 71H351.786V56.54H357.296C358.396 56.54 359.396 56.72 360.296 57.08C361.196 57.4333 361.966 57.93 362.606 58.57C363.246 59.2033 363.742 59.9633 364.096 60.85C364.449 61.7367 364.626 62.71 364.626 63.77ZM361.866 63.77C361.866 62.9767 361.759 62.2667 361.546 61.64C361.339 61.0067 361.036 60.4733 360.636 60.04C360.242 59.6 359.762 59.2633 359.196 59.03C358.636 58.7967 358.002 58.68 357.296 58.68H354.486V68.86H357.296C358.002 68.86 358.636 68.7433 359.196 68.51C359.762 68.2767 360.242 67.9433 360.636 67.51C361.036 67.07 361.339 66.5367 361.546 65.91C361.759 65.2767 361.866 64.5633 361.866 63.77ZM379.301 71H376.601V56.54H379.301V71ZM404.328 56.54V71H402.948C402.735 71 402.555 70.9667 402.408 70.9C402.268 70.8267 402.131 70.7067 401.998 70.54L394.448 60.9C394.488 61.34 394.508 61.7467 394.508 62.12V71H392.138V56.54H393.548C393.661 56.54 393.758 56.5467 393.838 56.56C393.925 56.5667 393.998 56.5867 394.058 56.62C394.125 56.6467 394.188 56.69 394.248 56.75C394.308 56.8033 394.375 56.8767 394.448 56.97L402.028 66.65C402.008 66.4167 401.991 66.1867 401.978 65.96C401.965 65.7333 401.958 65.5233 401.958 65.33V56.54H404.328ZM429.338 56.54V71H426.638V64.68H419.848V71H417.148V56.54H419.848V62.76H426.638V56.54H429.338ZM455.948 63.77C455.948 64.83 455.772 65.8133 455.418 66.72C455.072 67.62 454.578 68.4 453.938 69.06C453.298 69.72 452.528 70.2367 451.628 70.61C450.728 70.9767 449.728 71.16 448.628 71.16C447.535 71.16 446.538 70.9767 445.638 70.61C444.738 70.2367 443.965 69.72 443.318 69.06C442.678 68.4 442.182 67.62 441.828 66.72C441.475 65.8133 441.298 64.83 441.298 63.77C441.298 62.71 441.475 61.73 441.828 60.83C442.182 59.9233 442.678 59.14 443.318 58.48C443.965 57.82 444.738 57.3067 445.638 56.94C446.538 56.5667 447.535 56.38 448.628 56.38C449.362 56.38 450.052 56.4667 450.698 56.64C451.345 56.8067 451.938 57.0467 452.478 57.36C453.018 57.6667 453.502 58.0433 453.928 58.49C454.362 58.93 454.728 59.4233 455.028 59.97C455.328 60.5167 455.555 61.11 455.708 61.75C455.868 62.39 455.948 63.0633 455.948 63.77ZM453.198 63.77C453.198 62.9767 453.092 62.2667 452.878 61.64C452.665 61.0067 452.362 60.47 451.968 60.03C451.575 59.59 451.095 59.2533 450.528 59.02C449.968 58.7867 449.335 58.67 448.628 58.67C447.922 58.67 447.285 58.7867 446.718 59.02C446.158 59.2533 445.678 59.59 445.278 60.03C444.885 60.47 444.582 61.0067 444.368 61.64C444.155 62.2667 444.048 62.9767 444.048 63.77C444.048 64.5633 444.155 65.2767 444.368 65.91C444.582 66.5367 444.885 67.07 445.278 67.51C445.678 67.9433 446.158 68.2767 446.718 68.51C447.285 68.7433 447.922 68.86 448.628 68.86C449.335 68.86 449.968 68.7433 450.528 68.51C451.095 68.2767 451.575 67.9433 451.968 67.51C452.362 67.07 452.665 66.5367 452.878 65.91C453.092 65.2767 453.198 64.5633 453.198 63.77Z" fill="#E6E6EA"/>
</svg>
