<svg width="180" height="64" viewBox="0 0 180 64" fill="none" xmlns="http://www.w3.org/2000/svg">
<rect width="180" height="64" rx="20" fill="#E6E6EA"/>
<path d="M27.6119 22.1605V24.7068H22.4268L22.7363 34.2751L24.3615 34.5065L24.2067 26.0958H27.7667L27.6119 35.3553L28.6953 35.4325L29.0823 22.8549H32.3327L31.7909 36.0498H32.6422L34.19 20.7715L37.75 20.8487L35.4283 36.8214H36.5891L39.8395 19.3826H43.709C43.7709 19.3826 40.8456 31.42 39.3752 37.4387H40.1491C40.1491 37.4387 45.6714 21.705 45.9533 21.1573C46.2352 20.6097 46.5159 19.9899 46.882 19.6912C47.2481 19.3926 47.511 19.2821 47.9654 19.1511C48.4199 19.0201 49.1035 19.0578 49.8228 19.1511C50.5421 19.2443 53.4104 20.3932 53.6149 20.8487C53.8194 21.3041 53.737 21.8335 53.6149 22.0833C53.4929 22.333 53.3963 22.4924 53.1506 22.6234C52.9049 22.7545 52.5038 22.6931 52.2219 22.6234C51.94 22.5538 49.9342 21.5862 49.5132 21.5431C49.0923 21.5001 48.6026 21.4562 48.4298 21.5431C48.257 21.6301 48.1236 21.7438 48.0428 21.8518C47.962 21.9598 47.8881 22.1605 47.8881 22.1605C47.8881 22.1605 41.9788 38.743 41.7742 39.0592C41.5697 39.3753 41.4601 39.5134 41.2049 39.6689C40.9496 39.8245 40.6631 39.9004 40.2264 39.8308C39.7898 39.7612 22.1172 36.6671 21.6529 36.5899C21.1885 36.5128 20.987 36.3859 20.8016 36.2041C20.6162 36.0224 20.5694 35.8955 20.492 35.5868C20.4146 35.2782 19.8729 23.1636 20.0277 22.7778C20.1824 22.392 20.2598 22.3148 20.6468 22.0833C21.0337 21.8518 27.6119 22.1605 27.6119 22.1605Z" fill="#E00C00"/>
<ellipse cx="25.5219" cy="40.1588" rx="2.3666" ry="2.35705" fill="#E00C00"/>
<ellipse cx="35.5347" cy="42.5161" rx="2.42729" ry="2.41748" fill="#E00C00"/>
<path d="M64.552 27.912C66.104 27.912 67.456 28.216 68.608 28.824C69.76 29.432 70.656 30.328 71.296 31.512C71.936 32.696 72.256 34.128 72.256 35.808V45H68.368V40.968H60.688V45H56.848V35.808C56.848 34.128 57.168 32.696 57.808 31.512C58.448 30.328 59.344 29.432 60.496 28.824C61.648 28.216 63 27.912 64.552 27.912ZM68.368 37.848V35.448C68.368 34.056 68.024 33.008 67.336 32.304C66.648 31.584 65.712 31.224 64.528 31.224C63.328 31.224 62.384 31.584 61.696 32.304C61.024 33.008 60.688 34.056 60.688 35.448V37.848H68.368ZM84.8776 45L81.6376 40.32H81.4456H78.0616V45H74.1736V28.2H81.4456C82.9336 28.2 84.2216 28.448 85.3096 28.944C86.4136 29.44 87.2616 30.144 87.8536 31.056C88.4456 31.968 88.7416 33.048 88.7416 34.296C88.7416 35.544 88.4376 36.624 87.8296 37.536C87.2376 38.432 86.3896 39.12 85.2856 39.6L89.0536 45H84.8776ZM84.8056 34.296C84.8056 33.352 84.5016 32.632 83.8936 32.136C83.2856 31.624 82.3976 31.368 81.2296 31.368H78.0616V37.224H81.2296C82.3976 37.224 83.2856 36.968 83.8936 36.456C84.5016 35.944 84.8056 35.224 84.8056 34.296ZM97.462 27.912C99.014 27.912 100.366 28.216 101.518 28.824C102.67 29.432 103.566 30.328 104.206 31.512C104.846 32.696 105.166 34.128 105.166 35.808V45H101.278V40.968H93.598V45H89.758V35.808C89.758 34.128 90.078 32.696 90.718 31.512C91.358 30.328 92.254 29.432 93.406 28.824C94.558 28.216 95.91 27.912 97.462 27.912ZM101.278 37.848V35.448C101.278 34.056 100.934 33.008 100.246 32.304C99.558 31.584 98.622 31.224 97.438 31.224C96.238 31.224 95.294 31.584 94.606 32.304C93.934 33.008 93.598 34.056 93.598 35.448V37.848H101.278ZM118.436 36.336H121.988V45H119.06V43.992C117.892 44.856 116.388 45.288 114.548 45.288C112.996 45.288 111.572 44.952 110.276 44.28C108.98 43.608 107.948 42.632 107.18 41.352C106.412 40.056 106.028 38.52 106.028 36.744C106.028 35.032 106.42 33.512 107.204 32.184C108.004 30.84 109.108 29.792 110.516 29.04C111.924 28.288 113.508 27.912 115.268 27.912C116.74 27.912 118.076 28.16 119.276 28.656C120.476 29.152 121.484 29.872 122.3 30.816L119.804 33.12C118.604 31.856 117.156 31.224 115.46 31.224C114.388 31.224 113.436 31.456 112.604 31.92C111.772 32.368 111.124 33.008 110.66 33.84C110.196 34.672 109.964 35.632 109.964 36.72C109.964 37.856 110.188 38.824 110.636 39.624C111.1 40.424 111.716 41.032 112.484 41.448C113.252 41.848 114.092 42.048 115.004 42.048C116.364 42.048 117.508 41.664 118.436 40.896V36.336ZM131.239 27.912C132.791 27.912 134.143 28.216 135.295 28.824C136.447 29.432 137.343 30.328 137.983 31.512C138.623 32.696 138.943 34.128 138.943 35.808V45H135.055V40.968H127.375V45H123.535V35.808C123.535 34.128 123.855 32.696 124.495 31.512C125.135 30.328 126.031 29.432 127.183 28.824C128.335 28.216 129.687 27.912 131.239 27.912ZM135.055 37.848V35.448C135.055 34.056 134.711 33.008 134.023 32.304C133.335 31.584 132.399 31.224 131.215 31.224C130.015 31.224 129.071 31.584 128.383 32.304C127.711 33.008 127.375 34.056 127.375 35.448V37.848H135.055ZM133.039 26.904C132.607 26.904 132.223 26.824 131.887 26.664C131.567 26.488 131.207 26.256 130.807 25.968C130.551 25.776 130.335 25.632 130.159 25.536C129.999 25.44 129.839 25.392 129.679 25.392C129.343 25.392 129.071 25.512 128.863 25.752C128.655 25.976 128.543 26.304 128.527 26.736H126.631C126.663 25.664 126.927 24.816 127.423 24.192C127.935 23.552 128.607 23.232 129.439 23.232C129.855 23.232 130.223 23.32 130.543 23.496C130.879 23.656 131.255 23.888 131.671 24.192C131.927 24.384 132.135 24.528 132.295 24.624C132.471 24.72 132.639 24.768 132.799 24.768C133.119 24.768 133.383 24.656 133.591 24.432C133.815 24.192 133.935 23.872 133.951 23.472H135.847C135.815 24.512 135.543 25.344 135.031 25.968C134.535 26.592 133.871 26.904 133.039 26.904ZM148.997 45.288C147.253 45.288 145.677 44.912 144.269 44.16C142.877 43.408 141.781 42.376 140.981 41.064C140.197 39.736 139.805 38.248 139.805 36.6C139.805 34.952 140.197 33.472 140.981 32.16C141.781 30.832 142.877 29.792 144.269 29.04C145.677 28.288 147.253 27.912 148.997 27.912C150.741 27.912 152.309 28.288 153.701 29.04C155.093 29.792 156.189 30.832 156.989 32.16C157.789 33.472 158.189 34.952 158.189 36.6C158.189 38.248 157.789 39.736 156.989 41.064C156.189 42.376 155.093 43.408 153.701 44.16C152.309 44.912 150.741 45.288 148.997 45.288ZM148.997 41.976C149.989 41.976 150.885 41.752 151.685 41.304C152.485 40.84 153.109 40.2 153.557 39.384C154.021 38.568 154.253 37.64 154.253 36.6C154.253 35.56 154.021 34.632 153.557 33.816C153.109 33 152.485 32.368 151.685 31.92C150.885 31.456 149.989 31.224 148.997 31.224C148.005 31.224 147.109 31.456 146.309 31.92C145.509 32.368 144.877 33 144.413 33.816C143.965 34.632 143.741 35.56 143.741 36.6C143.741 37.64 143.965 38.568 144.413 39.384C144.877 40.2 145.509 40.84 146.309 41.304C147.109 41.752 148.005 41.976 148.997 41.976Z" fill="#14110F"/>
<path d="M67.187 20.662V25H66.476V22.198C66.476 22.086 66.482 21.965 66.494 21.835L65.183 24.298C65.121 24.416 65.026 24.475 64.898 24.475H64.784C64.656 24.475 64.561 24.416 64.499 24.298L63.173 21.826C63.179 21.892 63.184 21.957 63.188 22.021C63.192 22.085 63.194 22.144 63.194 22.198V25H62.483V20.662H63.092C63.128 20.662 63.159 20.663 63.185 20.665C63.211 20.667 63.234 20.672 63.254 20.68C63.276 20.688 63.295 20.701 63.311 20.719C63.329 20.737 63.346 20.761 63.362 20.791L64.661 23.2C64.695 23.264 64.726 23.33 64.754 23.398C64.784 23.466 64.813 23.536 64.841 23.608C64.869 23.534 64.898 23.463 64.928 23.395C64.958 23.325 64.99 23.258 65.024 23.194L66.305 20.791C66.321 20.761 66.338 20.737 66.356 20.719C66.374 20.701 66.393 20.688 66.413 20.68C66.435 20.672 66.459 20.667 66.485 20.665C66.511 20.663 66.542 20.662 66.578 20.662H67.187ZM70.7649 21.304V22.507H72.2829V23.128H70.7649V24.355H72.6909V25H69.9549V20.662H72.6909V21.304H70.7649ZM76.517 22.726C76.669 22.726 76.801 22.707 76.913 22.669C77.027 22.631 77.12 22.579 77.192 22.513C77.266 22.445 77.321 22.365 77.357 22.273C77.393 22.181 77.411 22.08 77.411 21.97C77.411 21.75 77.338 21.581 77.192 21.463C77.048 21.345 76.827 21.286 76.529 21.286H76.013V22.726H76.517ZM78.593 25H77.864C77.726 25 77.626 24.946 77.564 24.838L76.652 23.449C76.618 23.397 76.58 23.36 76.538 23.338C76.498 23.316 76.438 23.305 76.358 23.305H76.013V25H75.206V20.662H76.529C76.823 20.662 77.075 20.693 77.285 20.755C77.497 20.815 77.67 20.9 77.804 21.01C77.94 21.12 78.04 21.252 78.104 21.406C78.168 21.558 78.2 21.726 78.2 21.91C78.2 22.056 78.178 22.194 78.134 22.324C78.092 22.454 78.03 22.572 77.948 22.678C77.868 22.784 77.768 22.877 77.648 22.957C77.53 23.037 77.395 23.1 77.243 23.146C77.295 23.176 77.343 23.212 77.387 23.254C77.431 23.294 77.471 23.342 77.507 23.398L78.593 25ZM83.7819 23.977C83.8259 23.977 83.8649 23.994 83.8989 24.028L84.2169 24.373C84.0409 24.591 83.8239 24.758 83.5659 24.874C83.3099 24.99 83.0019 25.048 82.6419 25.048C82.3199 25.048 82.0299 24.993 81.7719 24.883C81.5159 24.773 81.2969 24.62 81.1149 24.424C80.9329 24.228 80.7929 23.994 80.6949 23.722C80.5989 23.45 80.5509 23.153 80.5509 22.831C80.5509 22.505 80.6029 22.207 80.7069 21.937C80.8109 21.665 80.9569 21.431 81.1449 21.235C81.3349 21.039 81.5609 20.887 81.8229 20.779C82.0849 20.669 82.3749 20.614 82.6929 20.614C83.0089 20.614 83.2889 20.666 83.5329 20.77C83.7789 20.874 83.9879 21.01 84.1599 21.178L83.8899 21.553C83.8739 21.577 83.8529 21.598 83.8269 21.616C83.8029 21.634 83.7689 21.643 83.7249 21.643C83.6949 21.643 83.6639 21.635 83.6319 21.619C83.5999 21.601 83.5649 21.58 83.5269 21.556C83.4889 21.53 83.4449 21.502 83.3949 21.472C83.3449 21.442 83.2869 21.415 83.2209 21.391C83.1549 21.365 83.0779 21.344 82.9899 21.328C82.9039 21.31 82.8039 21.301 82.6899 21.301C82.4959 21.301 82.3179 21.336 82.1559 21.406C81.9959 21.474 81.8579 21.574 81.7419 21.706C81.6259 21.836 81.5359 21.996 81.4719 22.186C81.4079 22.374 81.3759 22.589 81.3759 22.831C81.3759 23.075 81.4099 23.292 81.4779 23.482C81.5479 23.672 81.6419 23.832 81.7599 23.962C81.8779 24.092 82.0169 24.192 82.1769 24.262C82.3369 24.33 82.5089 24.364 82.6929 24.364C82.8029 24.364 82.9019 24.358 82.9899 24.346C83.0799 24.334 83.1619 24.315 83.2359 24.289C83.3119 24.263 83.3829 24.23 83.4489 24.19C83.5169 24.148 83.5839 24.097 83.6499 24.037C83.6699 24.019 83.6909 24.005 83.7129 23.995C83.7349 23.983 83.7579 23.977 83.7819 23.977ZM88.8617 23.362L88.3337 21.919C88.3077 21.855 88.2807 21.779 88.2527 21.691C88.2247 21.603 88.1967 21.508 88.1687 21.406C88.1427 21.508 88.1157 21.604 88.0877 21.694C88.0597 21.782 88.0327 21.859 88.0067 21.925L87.4817 23.362H88.8617ZM90.2867 25H89.6627C89.5927 25 89.5357 24.983 89.4917 24.949C89.4477 24.913 89.4147 24.869 89.3927 24.817L89.0687 23.932H87.2717L86.9477 24.817C86.9317 24.863 86.9007 24.905 86.8547 24.943C86.8087 24.981 86.7517 25 86.6837 25H86.0537L87.7607 20.662H88.5827L90.2867 25ZM96.3877 22.831C96.3877 23.149 96.3347 23.441 96.2287 23.707C96.1227 23.973 95.9737 24.202 95.7817 24.394C95.5897 24.586 95.3587 24.735 95.0887 24.841C94.8187 24.947 94.5187 25 94.1887 25H92.5357V20.662H94.1887C94.5187 20.662 94.8187 20.716 95.0887 20.824C95.3587 20.93 95.5897 21.079 95.7817 21.271C95.9737 21.461 96.1227 21.689 96.2287 21.955C96.3347 22.221 96.3877 22.513 96.3877 22.831ZM95.5597 22.831C95.5597 22.593 95.5277 22.38 95.4637 22.192C95.4017 22.002 95.3107 21.842 95.1907 21.712C95.0727 21.58 94.9287 21.479 94.7587 21.409C94.5907 21.339 94.4007 21.304 94.1887 21.304H93.3457V24.358H94.1887C94.4007 24.358 94.5907 24.323 94.7587 24.253C94.9287 24.183 95.0727 24.083 95.1907 23.953C95.3107 23.821 95.4017 23.661 95.4637 23.473C95.5277 23.283 95.5597 23.069 95.5597 22.831ZM99.7102 25H98.9002V20.662H99.7102V25ZM106.138 20.662V25H105.724C105.66 25 105.606 24.99 105.562 24.97C105.52 24.948 105.479 24.912 105.439 24.862L103.174 21.97C103.186 22.102 103.192 22.224 103.192 22.336V25H102.481V20.662H102.904C102.938 20.662 102.967 20.664 102.991 20.668C103.017 20.67 103.039 20.676 103.057 20.686C103.077 20.694 103.096 20.707 103.114 20.725C103.132 20.741 103.152 20.763 103.174 20.791L105.448 23.695C105.442 23.625 105.437 23.556 105.433 23.488C105.429 23.42 105.427 23.357 105.427 23.299V20.662H106.138ZM112.561 20.662V25H111.751V23.104H109.714V25H108.904V20.662H109.714V22.528H111.751V20.662H112.561ZM119.465 22.831C119.465 23.149 119.412 23.444 119.306 23.716C119.202 23.986 119.054 24.22 118.862 24.418C118.67 24.616 118.439 24.771 118.169 24.883C117.899 24.993 117.599 25.048 117.269 25.048C116.941 25.048 116.642 24.993 116.372 24.883C116.102 24.771 115.87 24.616 115.676 24.418C115.484 24.22 115.335 23.986 115.229 23.716C115.123 23.444 115.07 23.149 115.07 22.831C115.07 22.513 115.123 22.219 115.229 21.949C115.335 21.677 115.484 21.442 115.676 21.244C115.87 21.046 116.102 20.892 116.372 20.782C116.642 20.67 116.941 20.614 117.269 20.614C117.489 20.614 117.696 20.64 117.89 20.692C118.084 20.742 118.262 20.814 118.424 20.908C118.586 21 118.731 21.113 118.859 21.247C118.989 21.379 119.099 21.527 119.189 21.691C119.279 21.855 119.347 22.033 119.393 22.225C119.441 22.417 119.465 22.619 119.465 22.831ZM118.64 22.831C118.64 22.593 118.608 22.38 118.544 22.192C118.48 22.002 118.389 21.841 118.271 21.709C118.153 21.577 118.009 21.476 117.839 21.406C117.671 21.336 117.481 21.301 117.269 21.301C117.057 21.301 116.866 21.336 116.696 21.406C116.528 21.476 116.384 21.577 116.264 21.709C116.146 21.841 116.055 22.002 115.991 22.192C115.927 22.38 115.895 22.593 115.895 22.831C115.895 23.069 115.927 23.283 115.991 23.473C116.055 23.661 116.146 23.821 116.264 23.953C116.384 24.083 116.528 24.183 116.696 24.253C116.866 24.323 117.057 24.358 117.269 24.358C117.481 24.358 117.671 24.323 117.839 24.253C118.009 24.183 118.153 24.083 118.271 23.953C118.389 23.821 118.48 23.661 118.544 23.473C118.608 23.283 118.64 23.069 118.64 22.831Z" fill="#14110F"/>
</svg>
