<svg width="130" height="50" viewBox="0 0 130 50" fill="none" xmlns="http://www.w3.org/2000/svg">
<g clip-path="url(#clip0_90_291)">
<path d="M20.2583 11.001C21.7561 10.5019 23.3249 10.2487 24.9037 10.2513C31.9895 10.2513 37.9055 15.2843 39.2606 21.9741L49.3052 19.9251C46.9999 8.5561 36.953 8.85768e-06 24.9037 8.85768e-06C22.2203 -0.00225573 19.5542 0.429723 17.0088 1.2792L20.2583 11.001Z" fill="#FFCC00"/>
<path d="M8.40381 43.5544L15.1964 35.8747C12.1645 33.1884 10.2513 29.2681 10.2513 24.9004C10.2513 20.5359 12.1617 16.6174 15.1919 13.9344L8.39873 6.25391C3.24924 10.8158 0 17.4795 0 24.9004C0 32.3257 3.25051 38.9915 8.40381 43.5544Z" fill="#00A0DE"/>
<path d="M39.2581 27.8398C37.8972 34.5264 31.9876 39.5497 24.9038 39.5497C23.2782 39.5497 21.7129 39.2876 20.2541 38.7972L17 48.5231C19.482 49.3515 22.1396 49.8002 24.9038 49.8002C36.9414 49.8002 46.9873 41.2584 49.3013 29.8997L39.2581 27.8398Z" fill="#EC3413"/>
<path d="M58.0891 36.1977C57.7599 35.6647 57.3124 34.8119 57.0434 34.1845C55.4528 30.4916 55.3766 26.67 56.72 23.0015C58.197 18.9781 61.0183 15.8979 64.6637 14.3296C69.2467 12.3573 74.3155 12.7461 78.7079 15.3525C81.4982 16.9532 83.4764 19.4248 84.9784 22.9192L85.1178 23.2591L85.3777 23.9342C85.4195 24.0434 85.4608 24.1488 85.5018 24.2505L58.0891 36.1977ZM67.2426 20.2578C63.9881 21.6565 62.3104 24.7096 62.6551 28.2893L76.4419 22.3558C74.0711 19.5692 70.9853 18.6459 67.2426 20.2578ZM83.4898 36.7309L78.1609 33.168L78.1533 33.1758L77.8678 32.9834C77.0454 34.3185 75.7614 35.3997 74.1419 36.102C71.0602 37.4421 68.2043 37.0977 66.1536 35.2989L65.965 35.5857C65.9629 35.5824 65.9624 35.5799 65.9589 35.5799L62.4614 40.8126C63.3315 41.4172 64.2633 41.9276 65.2411 42.3355C69.1048 43.9403 73.0579 43.8659 76.9523 42.1723C79.7693 40.9515 81.9794 39.09 83.4898 36.7307M95.0833 6.62305V35.7144L99.6061 37.5474L97.036 43.5441L92.0437 41.4652C90.9228 40.9802 90.1604 40.2373 89.5827 39.3992C89.0307 38.5449 88.6178 37.3723 88.6178 35.7936V6.6233L95.0833 6.62305ZM106.8 28.3032C106.803 25.8261 107.897 23.6045 109.628 22.0946L104.987 16.9205C101.84 19.7022 99.8579 23.7672 99.8543 28.2961C99.8492 32.8266 101.828 36.8956 104.972 39.6847L109.607 34.5055C107.885 32.9898 106.798 30.7748 106.8 28.3032ZM115.045 36.5604C114.131 36.5578 113.251 36.4068 112.431 36.1337L110.215 42.7225C111.769 43.2437 113.398 43.5099 115.038 43.5109C122.385 43.518 128.52 38.3048 129.942 31.3746L123.13 29.9837C122.356 33.7401 119.029 36.5629 115.045 36.5604ZM115.065 13.1114C113.428 13.1083 111.801 13.3702 110.247 13.887L112.443 20.4819C113.287 20.2026 114.17 20.0602 115.059 20.0601C119.053 20.0639 122.381 22.9035 123.137 26.6705L129.949 25.289C128.547 18.3487 122.418 13.1162 115.065 13.1116" fill="black"/>
</g>
<defs>
<clipPath id="clip0_90_291">
<rect width="129.95" height="50" fill="white"/>
</clipPath>
</defs>
</svg>
