<svg width="115" height="50" viewBox="0 0 115 50" fill="none" xmlns="http://www.w3.org/2000/svg">
<g clip-path="url(#clip0_90_286)">
<path d="M31.5146 0H19.6166C14.3596 0.248655 10.0623 2.36592 8.82152 6.73229C8.17466 9.00964 7.81861 11.5103 7.31256 13.8711C4.74081 25.874 2.46009 38.2072 0 49.9702H92.6278C99.789 49.9702 104.706 48.457 106.035 42.7738C106.652 40.1334 107.243 37.1428 107.834 34.2422C110.136 22.9323 112.44 11.6229 114.798 0H31.5146Z" fill="#B82126"/>
<path d="M79.3054 29.8547C78.0206 31.1123 74.4146 31.4695 74.7836 28.4635C75.0899 25.9666 77.8083 25.4361 80.7545 25.7966C80.5354 27.1623 80.2843 28.8964 79.3054 29.8549M75.2471 20.1157C75.1247 20.8045 74.9363 21.4278 74.7836 22.0866C76.2545 21.7179 80.8352 20.5872 81.2765 22.5505C81.4231 23.2029 81.1702 23.8957 80.9865 24.4056C76.8444 24.0132 73.4684 24.7016 72.5807 27.652C71.9859 29.6283 72.6473 31.5731 73.9141 32.1161C76.3538 33.161 79.3215 31.9637 80.3489 30.3188C80.2421 30.8883 80.141 31.4635 80.1749 32.174H82.3197C82.3426 30.1197 82.6415 28.457 82.9574 26.6085C83.2269 25.0345 83.7336 23.476 83.6529 22.0868C83.4691 18.9052 78.1978 20.0303 75.2471 20.1157ZM96.7547 30.8406C95.0765 30.8765 94.2421 29.8381 94.2038 28.1162C94.137 25.1005 95.4599 21.7498 98.146 21.4493C99.3966 21.3094 100.302 21.6002 101.218 21.9132C100.377 25.3007 100.681 30.7563 96.7547 30.8406ZM102.32 14.8987C102.106 16.7718 101.821 18.5733 101.45 20.2897C95.3359 18.3545 91.5859 22.8531 91.6531 28.4058C91.6664 29.4798 91.8511 30.5448 92.5229 31.3043C93.6803 32.6137 96.9946 32.9267 98.6677 31.8262C98.9919 31.6132 99.3226 31.2258 99.5377 30.9567C99.6987 30.7543 99.9547 30.2244 100.001 30.3767C99.9132 30.9653 99.7816 31.5103 99.7693 32.1742H102.03C102.466 25.9238 103.813 20.585 104.813 14.8984L102.32 14.8987ZM38.4937 29.9128C37.1599 31.3253 33.8812 31.3036 33.6242 28.9271C33.5121 27.8931 33.8975 26.8088 34.0879 25.7388C34.2807 24.6558 34.4193 23.6168 34.6094 22.6662C35.9231 21.0621 39.7832 20.8686 40.1749 23.5359C40.5148 25.8516 39.5982 28.7431 38.4937 29.9128ZM40.4648 20.1155C38.3549 19.3231 35.7834 20.2691 34.6688 21.1691C34.6726 21.2085 34.6424 21.2139 34.6094 21.217C34.6285 21.2009 34.6491 21.185 34.6688 21.1691C34.6688 21.1657 34.6683 21.1624 34.6675 21.1592C34.6863 20.772 34.8226 20.5025 34.8415 20.1155H32.6966C31.8027 26.0623 30.7428 31.8428 29.624 37.5648H32.1168C32.4776 35.3361 32.7159 32.9854 33.2184 30.8982C33.7877 33.0933 37.5047 32.674 39.0733 31.8258C42.3099 30.0758 44.8063 21.7464 40.4648 20.1155ZM52.2908 24.2895H46.4359C46.6211 22.9435 47.8321 21.4639 49.7401 21.391C51.5359 21.3222 52.8215 22.0502 52.2908 24.2895ZM49.9141 19.8836C48.1128 20.0224 46.5904 20.5406 45.5083 21.6807C44.1809 23.0789 43.1063 26.1702 43.4211 28.9852C43.8704 33.0014 48.8708 32.8574 52.8706 31.8836C52.9386 31.1789 53.1092 30.5765 53.2184 29.9128C51.5706 30.5294 48.7101 31.3899 47.0155 30.3186C45.7361 29.5096 45.7285 27.461 46.146 25.6807C48.8341 25.5953 51.628 25.6117 54.3197 25.6807C54.4906 24.4188 54.9794 23.0431 54.5516 21.7969C53.9877 20.1514 51.9686 19.7256 49.9141 19.8836ZM28.0009 20.1155C27.9334 20.1253 27.9379 20.2074 27.9426 20.2892C27.3935 24.3971 26.6502 28.311 25.8558 32.1738H28.3486C28.9475 28.0381 29.6336 23.9901 30.4935 20.1155H28.0009ZM93.0448 20.1733C90.8417 19.072 89.0076 20.9202 88.2915 22.0285C88.4953 21.4599 88.5067 20.6987 88.6969 20.1155H86.4939C85.9002 24.2561 85.1839 28.2742 84.3491 32.1738H86.8998C86.9159 30.5756 87.2298 29.3935 87.4794 27.8258C88.0126 24.4792 88.7951 20.8092 92.6969 21.9128C92.8265 21.3466 92.8803 20.7047 93.0448 20.1733ZM65.0444 29.333C64.8148 28.7395 64.7552 27.759 64.8126 27.0141C64.9415 25.3388 65.5518 23.2996 66.4937 22.3765C67.7937 21.1023 70.3601 21.313 72.4067 22.0285C72.4704 21.3386 72.609 20.7233 72.6969 20.0576C69.3397 19.5094 66.154 19.8505 64.4648 21.6227C62.8114 23.3579 61.7273 27.3455 62.4937 29.8547C63.3906 32.7908 67.4117 32.9505 70.6679 31.8258C70.8119 31.2357 70.8881 30.5778 71.0157 29.9706C69.2365 30.8951 65.8352 31.3756 65.0444 29.333ZM63.6534 20.1155C61.4428 19.2229 59.7054 20.7314 58.9 22.1446C59.0823 21.5159 59.1578 20.7796 59.3054 20.1155H57.1025C56.5639 24.2922 55.7702 28.2135 55.0155 32.1738H57.5085C57.8578 29.8229 58.0085 26.654 58.7836 24.4054C59.4031 22.6085 61.0242 21.0776 63.3634 21.9128C63.3962 21.2498 63.5861 20.7437 63.6534 20.1155ZM23.4789 15.246C23.1229 17.5565 22.7217 19.8222 22.3195 22.0866C19.737 22.1137 17.1002 22.2141 14.6094 22.0283C15.0798 19.8132 15.4173 17.4646 15.8845 15.2457H13.102C12.1058 20.8975 11.2 26.6388 10.0879 32.174H12.9282C13.374 29.3343 13.7906 26.4659 14.3774 23.7682C16.7995 23.7083 19.7025 23.6045 22.0298 23.826C21.55 26.6312 20.97 29.3361 20.5226 32.174H23.3632C24.2758 26.4392 25.2377 20.7536 26.3778 15.2462L23.4789 15.246ZM30.5513 17.7966C31.0484 17.4545 31.6883 15.8951 30.9572 15.246C30.7256 15.0404 30.3381 14.9807 29.798 15.0722C29.2964 15.1567 29.0081 15.3269 28.8123 15.5937C28.4971 16.0227 28.2085 17.3162 28.6962 17.7966C29.1711 18.2646 30.2352 18.0141 30.5513 17.7966Z" fill="white"/>
</g>
<defs>
<clipPath id="clip0_90_286">
<rect width="114.8" height="50" fill="white"/>
</clipPath>
</defs>
</svg>
