<svg width="65" height="50" viewBox="0 0 65 50" fill="none" xmlns="http://www.w3.org/2000/svg">
<g clip-path="url(#clip0_90_273)">
<path d="M11.697 49.752V46.4427C11.697 45.1739 10.9246 44.3468 9.60078 44.3468C8.93897 44.3468 8.22188 44.5674 7.7254 45.2844C7.33947 44.6777 6.78796 44.3468 5.96058 44.3468C5.40882 44.3468 4.85756 44.5121 4.4161 45.1189V44.4571H3.25781V49.752H4.4161V46.8287C4.4161 45.8912 4.91259 45.4498 5.68495 45.4498C6.45681 45.4498 6.84324 45.9463 6.84324 46.8287V49.752H8.00153V46.8287C8.00153 45.8912 8.55279 45.4498 9.26987 45.4498C10.0422 45.4498 10.4282 45.9463 10.4282 46.8287V49.752H11.697ZM28.8505 44.4571H26.9754V42.8576H25.8171V44.4571H24.7691V45.5048H25.8169V47.9319C25.8169 49.1455 26.3133 49.8623 27.6372 49.8623C28.1337 49.8623 28.6849 49.697 29.0714 49.4764L28.7402 48.4834C28.4093 48.704 28.0234 48.7593 27.7475 48.7593C27.196 48.7593 26.9754 48.4284 26.9754 47.8767V45.5048H28.8505V44.4571ZM38.6686 44.3465C38.0068 44.3465 37.5656 44.6777 37.2897 45.1189V44.4571H36.1314V49.752H37.2897V46.7736C37.2897 45.8912 37.6757 45.3947 38.3927 45.3947C38.6133 45.3947 38.8892 45.45 39.1098 45.505L39.4407 44.402C39.2201 44.3468 38.8892 44.3468 38.6686 44.3468M23.8314 44.8985C23.2797 44.5123 22.5076 44.347 21.6802 44.347C20.3566 44.347 19.4741 45.0088 19.4741 46.0568C19.4741 46.9395 20.136 47.4357 21.2942 47.6013L21.8458 47.6566C22.4525 47.7666 22.7834 47.9322 22.7834 48.2081C22.7834 48.594 22.3422 48.8699 21.5699 48.8699C20.7975 48.8699 20.191 48.594 19.8048 48.3184L19.2533 49.2008C19.8601 49.642 20.6875 49.8626 21.5146 49.8626C23.0591 49.8626 23.9417 49.1458 23.9417 48.1528C23.9417 47.2151 23.2246 46.7186 22.1214 46.5533L21.5699 46.498C21.0734 46.4427 20.6875 46.3327 20.6875 46.0018C20.6875 45.6156 21.0734 45.395 21.6802 45.395C22.3422 45.395 23.004 45.6706 23.3349 45.8362L23.8314 44.8985ZM54.6091 44.347C53.947 44.347 53.5058 44.6779 53.2299 45.1191V44.4573H52.0716V49.7523H53.2299V46.7739C53.2299 45.8915 53.6161 45.395 54.3329 45.395C54.5538 45.395 54.8297 45.4503 55.0503 45.5053L55.3812 44.4023C55.1606 44.347 54.8297 44.347 54.6091 44.347ZM39.8269 47.1048C39.8269 48.7043 40.9299 49.8626 42.64 49.8626C43.4121 49.8626 43.9636 49.6973 44.5151 49.2561L43.9636 48.3184C43.5224 48.6493 43.0812 48.8146 42.5847 48.8146C41.647 48.8146 40.9852 48.1528 40.9852 47.1048C40.9852 46.1121 41.647 45.45 42.5847 45.395C43.0812 45.395 43.5224 45.5603 43.9636 45.8915L44.5151 44.9538C43.9636 44.5123 43.4121 44.347 42.64 44.347C40.9299 44.347 39.8269 45.5053 39.8269 47.1048ZM50.5274 47.1048V44.4573H49.3691V45.1191C48.9829 44.6229 48.4314 44.347 47.7143 44.347C46.2252 44.347 45.0669 45.5053 45.0669 47.1048C45.0669 48.7043 46.2252 49.8626 47.7143 49.8626C48.4865 49.8626 49.0382 49.587 49.3691 49.0905V49.7523H50.5274V47.1048ZM46.2802 47.1048C46.2802 46.1671 46.887 45.395 47.8797 45.395C48.8174 45.395 49.4794 46.1121 49.4794 47.1048C49.4794 48.0425 48.8174 48.8146 47.8797 48.8146C46.887 48.7593 46.2802 48.0425 46.2802 47.1048ZM32.436 44.347C30.8915 44.347 29.7882 45.45 29.7882 47.1048C29.7882 48.7596 30.8912 49.8626 32.491 49.8626C33.2631 49.8626 34.0355 49.642 34.6422 49.1458L34.0905 48.3184C33.6493 48.6493 33.0978 48.8699 32.5463 48.8699C31.8292 48.8699 31.1121 48.539 30.9465 47.601H34.8628V47.1601C34.9181 45.45 33.9254 44.347 32.436 44.347ZM32.4357 45.3397C33.1525 45.3397 33.6493 45.7812 33.7593 46.6086H31.0015C31.1118 45.8915 31.6083 45.3397 32.4357 45.3397ZM61.1724 47.1048V42.3613H60.0141V45.1191C59.6279 44.6229 59.0764 44.347 58.3593 44.347C56.8701 44.347 55.7118 45.5053 55.7118 47.1048C55.7118 48.7043 56.8701 49.8626 58.3593 49.8626C59.1317 49.8626 59.6832 49.587 60.0141 49.0905V49.7523H61.1724V47.1048ZM56.9254 47.1048C56.9254 46.1671 57.5319 45.395 58.5249 45.395C59.4626 45.395 60.1244 46.1121 60.1244 47.1048C60.1244 48.0425 59.4626 48.8146 58.5249 48.8146C57.5319 48.7593 56.9254 48.0425 56.9254 47.1048ZM18.205 47.1048V44.4573H17.0468V45.1191C16.6606 44.6229 16.1091 44.347 15.392 44.347C13.9028 44.347 12.7445 45.5053 12.7445 47.1048C12.7445 48.7043 13.9028 49.8626 15.392 49.8626C16.1643 49.8626 16.7159 49.587 17.0468 49.0905V49.7523H18.205V47.1048ZM13.9028 47.1048C13.9028 46.1671 14.5096 45.395 15.5023 45.395C16.44 45.395 17.102 46.1121 17.102 47.1048C17.102 48.0425 16.44 48.8146 15.5023 48.8146C14.5096 48.7593 13.9028 48.0425 13.9028 47.1048Z" fill="black"/>
<path d="M23.4453 4.24609H40.8197V35.4649H23.4453V4.24609Z" fill="#FF5F00"/>
<path d="M24.5489 19.8565C24.5489 13.5136 27.5273 7.88744 32.1052 4.24698C28.7408 1.5995 24.4939 0 19.8607 0C8.88406 0 0.00390625 8.88015 0.00390625 19.8565C0.00390625 30.8329 8.88406 39.7131 19.8604 39.7131C24.4936 39.7131 28.7406 38.1136 32.1052 35.4658C27.5273 31.8807 24.5489 26.1995 24.5489 19.8565Z" fill="#EB001B"/>
<path d="M64.2614 19.8565C64.2614 30.8327 55.3813 39.7131 44.4049 39.7131C39.7717 39.7131 35.5247 38.1136 32.1602 35.4658C36.7933 31.8256 39.7167 26.1995 39.7167 19.8565C39.7167 13.5136 36.738 7.88744 32.1602 4.24698C35.5245 1.5995 39.7717 0 44.4049 0C55.3813 0 64.2614 8.93543 64.2614 19.8565Z" fill="#F79E1B"/>
</g>
<defs>
<clipPath id="clip0_90_273">
<rect width="64.33" height="50" fill="white"/>
</clipPath>
</defs>
</svg>
