<svg width="109" height="100" viewBox="0 0 109 100" fill="none" xmlns="http://www.w3.org/2000/svg">
<ellipse cx="54.0105" cy="22.4603" rx="33.1551" ry="21.9251" fill="#01BCFF"/>
<path d="M35.8289 25.1336C35.615 24.278 25.9359 21.3903 21.123 20.0534L21.6578 16.8448L22.1926 14.9732L23.7968 13.3689L25.1337 10.9625L28.6097 8.28867L35.2942 10.6951L40.107 11.7646L42.246 11.4972L47.3263 10.4277L49.1979 9.62556L51.6043 8.02129L55.0803 7.75391L60.1605 8.02129L65.5081 10.1603L69.7861 11.2298L76.2033 10.4277L79.9466 9.0908L81.8182 9.62556L86.8984 16.5774L87.4332 19.786L86.8984 20.3208L72.9947 25.1336V25.9357L73.2621 28.3421L71.123 29.679H68.7166L68.984 31.8181L67.3797 32.8876L64.7059 33.4224L62.2995 35.5614L60.4279 35.8288L57.2193 36.8983L54.2781 36.0962L52.1391 37.1657L50.2674 36.8983L48.3958 35.0266L45.9894 34.4919L43.5829 32.8876L40.9091 31.8181L39.8396 29.679H38.7701L36.0963 28.0748C36.0963 27.4509 36.0428 25.9892 35.8289 25.1336Z" fill="white"/>
<path fill-rule="evenodd" clip-rule="evenodd" d="M49.2007 0.152912C42.9222 0.79518 37.0003 2.52257 32.3477 5.06865C25.8058 8.6488 21.7323 13.3185 20.3108 18.8679C20.0504 19.8841 20.0195 20.3315 20.0195 23.074C20.0195 26.4356 20.1307 27.2648 20.8864 29.5385C23.6327 37.8003 32.1678 44.0395 43.8235 46.3056C51.7716 47.8508 61.5002 47.4638 68.606 45.3196C73.189 43.9367 77.3645 41.8369 80.3335 39.4219C84.1684 36.3028 86.723 32.4531 87.8184 28.1432C88.67 24.7921 88.5905 20.6089 87.6178 17.589C86.3188 13.5567 82.9851 9.55709 78.3957 6.52492C73.6484 3.38854 67.6287 1.28674 60.6765 0.338357C58.0858 -0.0151648 51.8312 -0.116115 49.2007 0.152912ZM50.709 1.40663C45.6996 1.73847 40.8266 2.83064 36.4608 4.59995C35.2124 5.106 32.9084 6.22077 32.2193 6.65226C32.0765 6.74171 31.5012 7.09967 30.9406 7.44771C30.3801 7.79588 29.9214 8.12381 29.9214 8.17657C29.9214 8.39557 35.1632 9.99916 37.8063 10.5887C40.0459 11.0882 41.1167 11.0555 43.6244 10.4109C44.7321 10.1262 46.0415 9.85302 46.5343 9.80378C47.3035 9.72686 47.5414 9.63571 48.2171 9.15838C50.092 7.83401 52.272 7.09066 54.7425 6.9333C57.1679 6.7788 59.9339 7.33684 62.6013 8.51872C67.3019 10.6016 70.9875 10.9961 75.3655 9.88501C77.2004 9.41931 79.1266 8.72115 79.0256 8.55842C78.9126 8.37638 77.0009 7.15531 75.6021 6.37174C69.012 2.68006 59.6559 0.813855 50.709 1.40663ZM54.2464 8.3116C52.2657 8.53492 50.2855 9.28793 48.8458 10.3653C47.935 11.0468 46.7736 12.1677 44.7885 14.2812C42.965 16.2225 42.9676 16.2142 44.0634 16.6352C44.4791 16.7951 45.0132 16.8683 45.7252 16.8634C46.6374 16.8571 46.8772 16.8028 47.5613 16.4477C47.9941 16.2231 48.9974 15.5292 49.7909 14.9059C52.8398 12.5105 53.982 11.9331 55.6927 11.9222C57.272 11.912 58.1855 12.3837 60.9388 14.6314C62.4128 15.8347 68.2616 20.8192 70.9678 23.1787L72.4721 24.49L72.9351 24.2858C75.6628 23.0826 80.5677 21.4106 83.8247 20.5739C84.9428 20.2865 86.0811 19.9941 86.3541 19.924C86.8395 19.7993 86.8488 19.7856 86.7659 19.3131C86.2731 16.5019 83.5675 12.1636 81.0014 10.0699L80.4115 9.58843L79.026 10.1314C73.1822 12.4216 68.3043 12.3931 62.753 10.0368C61.7311 9.60293 60.511 9.12991 60.0417 8.9856C58.0398 8.36985 55.918 8.12315 54.2464 8.3116ZM26.596 10.8307C24.8151 12.6022 23.6634 14.1271 22.78 15.8833C22.3463 16.7457 21.7561 18.3557 21.6008 19.1003L21.5171 19.5017L23.7847 20.0679C26.8967 20.8452 29.2113 21.5221 31.1956 22.2352C32.8767 22.8394 35.1211 23.8821 35.8444 24.3949C36.1953 24.6437 36.2515 24.6503 36.4557 24.4663C37.5627 23.4686 39.7017 23.5251 40.8116 24.581L41.1441 24.8974L41.7169 24.6151C43.2165 23.8762 45.5325 24.3961 46.368 25.6591C46.6119 26.028 46.6371 26.0347 47.5642 25.9754C49.7639 25.8349 51.3504 27.1338 51.4462 29.1538C51.4804 29.8756 51.5786 29.9907 52.1634 29.9936C52.7212 29.9963 54.0986 30.7056 54.5281 31.2111C54.7229 31.4404 55.0263 31.9404 55.2026 32.3221C55.4803 32.9235 55.5145 33.1502 55.4593 34.0198C55.4243 34.5719 55.354 35.1495 55.3029 35.3036C55.221 35.5513 55.2986 35.6168 55.9761 35.8702C57.374 36.3934 58.8177 36.3439 59.3533 35.7545C59.5718 35.5142 59.5244 35.4444 58.0626 33.8498C57.2281 32.9393 56.5452 32.1092 56.5452 32.005C56.5452 31.7422 56.8991 31.6332 57.2421 31.7903C57.3998 31.8625 58.2796 32.6342 59.197 33.5052L60.8651 35.0888H61.5164C62.3092 35.0888 62.793 34.9183 63.2603 34.4744C63.6978 34.0589 63.8326 33.5135 63.6031 33.0872C63.5083 32.9111 62.6634 31.9047 61.7257 30.8509C60.788 29.7972 60.0034 28.8596 59.9823 28.7677C59.9612 28.6756 60.0346 28.5253 60.1456 28.4336C60.4268 28.2012 60.7594 28.4382 62.5126 30.1212C64.9936 32.5027 64.9573 32.4768 65.8317 32.4768C67.5211 32.4768 68.791 30.9651 68.1458 29.7219C68.0189 29.4773 66.8788 28.2321 65.6122 26.9546C64.3456 25.6771 63.2683 24.5659 63.2182 24.4852C63.0707 24.2474 63.2401 23.9881 63.5431 23.9884C63.8063 23.9887 65.0436 25.0222 68.1087 27.8021C69.6019 29.1562 70.1822 29.3439 71.3051 28.8358C72.41 28.3362 72.8451 27.2942 72.3483 26.3376C72.1528 25.961 69.5359 23.6237 64.2176 19.0751C60.36 15.776 58.4796 14.2832 57.5459 13.779C56.8234 13.3886 56.6356 13.3449 55.6927 13.3475C54.7424 13.35 54.5549 13.3958 53.7028 13.8337C53.1855 14.0996 51.8576 14.996 50.7519 15.8257C49.6462 16.6553 48.4171 17.4944 48.0204 17.6902C47.3553 18.0184 47.1764 18.0459 45.7252 18.0446C44.3653 18.0433 44.0622 18.0024 43.4956 17.744C42.6987 17.3807 42.0265 16.7575 41.9225 16.2859C41.7709 15.5986 42.0096 15.2777 44.9119 12.2672C45.5624 11.5924 45.7556 11.3204 45.5842 11.3204C45.4519 11.3204 44.7214 11.4954 43.9607 11.7093C41.9757 12.2673 40.9833 12.3798 39.4369 12.222C37.3626 12.0105 32.9433 10.8038 29.6151 9.54024C28.9778 9.29825 28.4291 9.10027 28.3958 9.10027C28.3626 9.10027 27.5526 9.87901 26.596 10.8307ZM21.277 22.0771C21.1764 26.6189 23.6183 31.3318 27.9542 34.9646C39.4955 44.6344 61.4023 46.0747 75.7589 38.1077C82.8183 34.1903 86.9724 28.4258 86.9724 22.5474V21.2661L84.71 21.8479C81.2695 22.7326 77.8765 23.8039 74.9064 24.9432C74.149 25.2338 73.5139 25.4812 73.4948 25.4933C73.4758 25.5054 73.5497 25.7281 73.6588 25.9881C74.1877 27.2487 73.6718 28.9032 72.504 29.692C71.7709 30.1871 71.1451 30.3856 70.3144 30.3865L69.7224 30.3873L69.5657 31.0446C69.1929 32.6072 67.6518 33.7628 65.8547 33.8275C65.2231 33.8502 65.1893 33.8712 64.9255 34.402C64.3355 35.5896 62.8514 36.4441 61.4916 36.379C60.7293 36.3425 60.6467 36.3674 60.2174 36.7633C59.6678 37.2701 58.7377 37.5701 57.7156 37.5701C56.9556 37.5701 55.4414 37.1793 54.8368 36.8271C54.5253 36.6457 54.4646 36.6616 53.8213 37.0926C52.2412 38.1515 50.337 37.9859 48.8971 36.6643C48.5751 36.3687 48.242 35.9593 48.1568 35.7543C48.0126 35.4078 47.9683 35.3891 47.527 35.4883C46.3258 35.7581 44.4625 34.9253 43.8872 33.8616C43.6529 33.4284 43.6232 33.4161 42.7048 33.3699C41.8943 33.3291 41.6545 33.2558 40.9897 32.8459C40.185 32.3496 39.4045 31.4031 39.2771 30.7692C39.212 30.445 39.1497 30.4164 38.373 30.3543C37.4147 30.2778 36.6157 29.8767 35.9759 29.1511C35.4646 28.5713 35.108 27.4058 35.219 26.6781C35.2639 26.3838 35.315 26.0294 35.3325 25.8905C35.3916 25.42 32.3159 23.9827 28.9378 22.902C27.6266 22.4826 21.7679 20.9844 21.4388 20.9844C21.3555 20.9844 21.2915 21.4161 21.277 22.0771ZM37.662 25.1962C36.8196 25.6248 36.5446 26.0667 36.5446 26.9918C36.5446 27.5629 36.614 27.8496 36.819 28.125C37.5563 29.1158 38.7562 29.3789 39.6829 28.7527C39.9505 28.5719 40.2244 28.458 40.2917 28.4994C40.359 28.5408 40.3789 28.7941 40.3359 29.062C40.1683 30.1052 40.7856 31.3484 41.6999 31.8091C42.571 32.2482 42.9643 32.2678 43.7468 31.9111C44.1387 31.7325 44.4933 31.6201 44.5349 31.6615C44.5764 31.7029 44.6104 31.9052 44.6104 32.111C44.6104 33.0186 45.1737 33.7071 46.2518 34.117C46.9638 34.3877 47.5982 34.2917 48.1495 33.8297C48.6227 33.4332 48.9374 33.5037 48.9413 34.0073C48.9429 34.207 49.0534 34.6056 49.1871 34.8929C49.8249 36.2646 51.3723 36.8788 52.6762 36.2777C54.4999 35.4369 54.8534 33.1715 53.3639 31.8692C52.5579 31.1646 52.0213 31.0769 50.3938 31.3835L49.9475 31.4676L50.0594 30.9601C50.1209 30.681 50.1741 30.0119 50.1778 29.4732C50.1832 28.6624 50.134 28.4233 49.8919 28.0853C49.2129 27.1377 47.5937 26.8784 46.6069 27.5593C46.0039 27.9755 45.7908 27.9325 45.7908 27.3952C45.7908 26.9653 45.3512 26.2781 44.8304 25.8938C44.5294 25.6718 44.2696 25.6206 43.442 25.6206C42.5276 25.6206 42.3671 25.6599 41.8638 26.0071C41.5558 26.2198 41.1685 26.5918 41.0031 26.8341L40.7026 27.2746L40.6158 26.7632C40.486 25.9979 40.085 25.4413 39.46 25.1588C38.7357 24.8314 38.3638 24.8391 37.662 25.1962ZM90.4274 53.8999C89.6649 54.0502 88.8771 54.4763 88.5722 54.9036C88.1332 55.5185 88.023 56.2307 88.0224 58.458L88.0216 60.6057L87.7265 60.2075C86.9484 59.1575 85.8064 58.5796 84.3386 58.493C82.4375 58.3808 80.9959 58.9325 79.7647 60.2431C78.3625 61.7357 77.7701 63.5108 77.7432 66.3011C77.724 68.2964 77.8639 69.0396 78.5187 70.4193C79.5753 72.6453 81.3718 73.6737 84.4805 73.832C88.0541 74.014 90.5141 72.6056 91.589 69.7618C91.8822 68.9864 91.8856 68.9002 91.9266 61.3711L91.9679 53.7639L91.4702 53.7783C91.1965 53.7861 90.7272 53.8408 90.4274 53.8999ZM5.11137 58.4753C2.94265 58.7922 1.19204 60.2951 0.390045 62.5286C0.100987 63.3337 0.0889199 63.5407 0.0452465 68.4885L0 73.6144H1.77999H3.55998V68.9324C3.55998 63.986 3.587 63.7265 4.18583 62.924C5.07347 61.7345 7.42842 61.696 8.24156 62.8577C8.77483 63.6195 8.80604 63.9514 8.80604 68.8671V73.6144H10.5766H12.3471V68.8435C12.3471 63.7235 12.3706 63.5194 13.042 62.7922C14.0272 61.725 16.2615 61.7618 17.0287 62.8577C17.5621 63.6197 17.5932 63.9513 17.5932 68.8709V73.622L19.331 73.5855L21.0687 73.5491L21.1066 69.1089C21.1286 66.5218 21.0871 64.2326 21.0069 63.6239C20.729 61.5136 19.5081 59.7539 17.7805 58.974C16.7145 58.4926 15.239 58.2862 14.1294 58.4631C13.1458 58.6198 11.6404 59.3433 11.0653 59.9356L10.6359 60.3779L10.0892 59.8601C9.38875 59.1965 8.12864 58.6107 7.07563 58.4591C6.14616 58.3252 6.13763 58.3253 5.11137 58.4753ZM68.939 58.4715C67.669 58.6283 66.595 59.0252 65.7783 59.6391C65.2374 60.0457 64.9849 60.3667 64.6223 61.1081C64.3671 61.6298 64.1199 62.3652 64.0728 62.7423L63.987 63.428H65.8348H67.6826L67.8417 62.8993C68.0565 62.1852 68.7024 61.6412 69.4719 61.5262C70.2836 61.405 71.4929 61.5235 71.9743 61.7714C72.6749 62.1322 72.8953 63.1162 72.4125 63.7274C72.0657 64.1664 71.6611 64.2859 69.4533 64.6014C66.5853 65.0113 65.6473 65.3603 64.6502 66.3883C63.1596 67.9254 63.1235 70.9745 64.5784 72.4632C65.6741 73.5845 67.1129 73.9627 69.7877 73.8325C70.6915 73.7885 71.7813 73.658 72.2096 73.5424C74.1106 73.0295 75.54 71.9172 76.1131 70.5047C76.4056 69.7843 76.4147 69.6375 76.4147 65.6481C76.4147 61.0732 76.4124 61.0591 75.5109 60.0654C74.4193 58.8622 71.5024 58.1548 68.939 58.4715ZM98.776 58.4699C97.2966 58.7315 96.2176 59.3194 95.1918 60.4227C93.8304 61.8869 93.1419 63.7965 93.1385 66.1169C93.1339 69.2442 94.5615 71.9624 96.7994 73.0873C98.8581 74.1222 102.2 74.1431 104.282 73.1341C105.789 72.4038 107.236 70.4912 107.771 68.5212C108.128 67.2103 108.099 64.8188 107.712 63.5586C106.862 60.7924 105.093 59.0496 102.602 58.524C101.665 58.3263 99.7418 58.2991 98.776 58.4699ZM27.9076 58.6722C25.3526 59.2881 23.4596 61.2905 22.8854 63.9843C22.601 65.3189 22.704 68.2989 23.0697 69.311C23.7561 71.2111 24.683 72.2541 26.4172 73.0784C27.7479 73.711 28.5247 73.8761 30.1574 73.8736C31.6905 73.8713 32.8392 73.6208 33.9057 73.0561C35.1526 72.396 36.4818 70.9291 36.8022 69.8598L36.8902 69.5659H34.8972H32.9041L32.4057 70.0143C31.8069 70.5531 31.1914 70.7416 30.0526 70.7349C28.1033 70.7234 26.8701 69.6747 26.5665 67.7703L26.4779 67.2152H31.8064H37.1348V65.885C37.1348 61.295 34.355 58.4377 29.9267 58.4762C29.2385 58.4822 28.3299 58.5703 27.9076 58.6722ZM44.676 58.6611C42.3231 59.1845 40.7097 60.3684 39.781 62.2526C39.0585 63.7187 38.9758 64.4381 38.9731 69.2721L38.9709 73.6144H40.8726H42.7743L42.7784 69.9251C42.7806 67.8959 42.8378 65.8108 42.9056 65.2913C43.1806 63.1831 44.2163 62.326 46.4793 62.3336L47.4958 62.337V60.4012V58.4653L46.4793 58.4757C45.9204 58.4814 45.1088 58.5649 44.676 58.6611ZM53.2664 58.6672C50.678 59.3883 48.9062 61.2735 48.3469 63.9019C48.0943 65.0895 48.0984 67.6928 48.3547 68.7755C48.805 70.6784 50.0872 72.4199 51.5637 73.1345C53.6141 74.1269 56.8142 74.1223 58.8804 73.1239C60.2603 72.4571 61.8351 70.4706 62.1147 69.0436C62.164 68.7922 62.2334 68.4836 62.2689 68.3579C62.3286 68.147 62.1704 68.1294 60.2262 68.1294H58.119V68.4303C58.119 68.8828 57.4958 70.037 57.1186 70.2832C56.9359 70.4024 56.4501 70.5621 56.0391 70.6383C55.4288 70.7512 55.1601 70.7373 54.5741 70.562C52.9835 70.0864 52.3484 68.8716 52.3484 66.3048C52.3484 64.0103 52.8665 62.6628 53.9933 62.0273C54.3996 61.7981 54.7222 61.734 55.4782 61.7323C56.954 61.729 57.6831 62.226 58.0576 63.4905L58.2133 64.0156L60.2645 64.0516C62.0022 64.0821 62.3159 64.0581 62.3159 63.8948C62.3159 63.4029 61.9914 62.2448 61.6534 61.5305C61.0293 60.2111 60.0582 59.4167 58.3813 58.8531C57.2415 58.4699 54.3518 58.3649 53.2664 58.6672ZM28.6831 61.7945C28.3988 61.8954 28.0211 62.0857 27.8439 62.2175C27.431 62.5244 26.8185 63.6125 26.703 64.2442L26.6134 64.7339H29.9237H33.2338L33.1479 64.1995C32.9638 63.053 32.2323 62.1759 31.1349 61.786C30.4952 61.5586 29.3365 61.5627 28.6831 61.7945ZM99.0965 61.8459C98.3793 62.1703 97.6815 63.0155 97.3828 63.9219C97.046 64.9434 97.0404 67.3842 97.3724 68.3395C97.6591 69.1641 98.3668 70.0067 99.0851 70.3788C99.8918 70.7965 101.269 70.7792 102.131 70.3404C102.849 69.9751 103.516 69.1201 103.789 68.2152C104.053 67.341 104.005 64.6771 103.71 63.8346C103.415 62.9889 102.705 62.168 101.989 61.8433C101.277 61.5205 99.8133 61.5218 99.0965 61.8459ZM83.9559 61.8765C82.3971 62.3419 81.4668 64.3111 81.6466 66.7636C81.7877 68.688 82.3781 69.8678 83.4714 70.4103C85.2772 71.3064 87.244 70.3836 87.8755 68.3442C88.3889 66.6863 88.1795 64.4516 87.3906 63.1702C86.7246 62.0883 85.1867 61.509 83.9559 61.8765ZM72.2795 66.4973C72.097 66.5929 71.2125 66.8257 70.3139 67.0145C67.9196 67.518 67.3745 67.9305 67.3745 69.2395C67.3745 70.4493 68.0717 71.067 69.4088 71.0422C70.3544 71.0247 71.3655 70.5909 71.942 69.9554C72.4808 69.3617 72.7159 68.4496 72.6542 67.1939L72.6113 66.3237L72.2795 66.4973ZM75.1032 78.5837C72.6616 78.9606 71.0003 80.1329 69.9182 82.243C69.2569 83.5323 69.0699 84.4429 69.0756 86.3475C69.0803 87.9971 69.1161 88.2765 69.4415 89.2062C70.1258 91.1619 71.1681 92.4743 72.6408 93.2352C73.8667 93.8685 74.7215 94.0498 76.4802 94.0498C78.239 94.0498 79.0938 93.8685 80.3197 93.2352C81.7916 92.4747 82.8327 91.1642 83.5203 89.2062C83.8521 88.2615 83.8819 88.0184 83.8786 86.2822C83.8755 84.5745 83.8414 84.2944 83.5313 83.4306C82.6017 80.8408 80.8847 79.1945 78.6243 78.7255C77.6004 78.513 75.983 78.4479 75.1032 78.5837ZM29.1678 78.7721C26.5251 79.2492 24.6069 81.0338 24.0811 83.5044C23.931 84.21 23.8925 85.8327 23.8907 91.5386L23.8885 98.6887H25.141C26.5689 98.6887 27.0331 98.5224 27.4348 97.8661C27.6671 97.487 27.6909 97.1955 27.6913 94.7382C27.6916 93.2477 27.7202 92.0284 27.7547 92.0284C27.7893 92.0284 28.0674 92.298 28.3724 92.6277C30.2596 94.6664 34.0563 94.5409 36.0449 92.3742C37.4602 90.8324 38.0695 89.0298 38.082 86.3475C38.0884 84.9762 38.0333 84.443 37.7953 83.5745C36.7592 79.793 33.5151 77.9874 29.1678 78.7721ZM58.4482 78.7305C57.358 78.9376 56.2443 79.5496 55.5179 80.3411C54.2266 81.748 53.6378 83.5788 53.6285 86.2169C53.6214 88.2342 53.8424 89.3051 54.5373 90.6217C56.371 94.0967 60.6941 95.0946 63.1356 92.6064L63.7585 91.9716L63.7558 92.4896C63.7474 94.0748 63.07 95.5936 62.0974 96.2078C60.8859 96.9728 59.4902 96.7961 58.4334 95.7438L57.8498 95.1627H55.8771H53.9045L53.9939 95.4565C54.2141 96.18 55.0762 97.6031 55.6492 98.1888C57.4439 100.024 61.4061 100.57 63.9654 99.3369C64.8985 98.8871 66.0205 97.7699 66.5493 96.7643C67.4872 94.9806 67.4964 94.9072 67.4964 89.1553C67.4964 83.5259 67.4493 83.0879 66.695 81.7082C65.9705 80.3827 64.27 79.1353 62.704 78.7806C61.7117 78.5559 59.5048 78.5299 58.4482 78.7305ZM43.43 78.9376C41.281 79.5144 39.9857 80.9809 39.6824 83.1805L39.5969 83.8008H41.4426H43.2884L43.4492 83.2662C43.8579 81.9081 45.361 81.3656 47.2047 81.9109C48.0107 82.1491 48.2827 82.4867 48.2827 83.2484C48.2827 84.2617 47.7183 84.5553 45.2082 84.8478C41.2592 85.3079 39.6728 86.3907 39.229 88.9285C38.939 90.5861 39.516 92.2898 40.6652 93.1699C40.9693 93.4028 41.6329 93.7188 42.1402 93.8722C42.9702 94.1232 43.274 94.1443 45.1807 94.083C47.4485 94.0103 48.1418 93.8677 49.4684 93.2009C50.4051 92.7302 51.197 91.9352 51.6557 91.005L52.0205 90.2653V85.9557V81.646L51.6148 80.9277C51.1456 80.0969 50.3156 79.5225 48.9384 79.0754C47.7335 78.6842 44.6606 78.6073 43.43 78.9376ZM75.2788 81.909C74.4542 82.1723 73.5911 83.1293 73.2564 84.1511C72.9251 85.1631 72.9159 87.3421 73.2387 88.3957C73.5221 89.321 74.1554 90.1588 74.8409 90.515C75.254 90.7297 75.6045 90.7877 76.4905 90.7877C77.5148 90.7877 77.6735 90.7522 78.261 90.3908C79.5226 89.6152 80.1587 87.5875 79.8691 85.2646C79.6625 83.608 79.0909 82.6362 77.9923 82.0739C77.3187 81.729 76.0783 81.6536 75.2788 81.909ZM30.1044 81.9843C29.3675 82.1577 28.5757 82.8677 28.2321 83.6632C27.6496 85.0112 27.6108 87.5594 28.1527 88.8549C28.4128 89.4763 29.1983 90.3041 29.7533 90.5417C30.434 90.8332 31.7488 90.7744 32.4166 90.4227C33.9845 89.5971 34.6815 86.7484 33.9276 84.2467C33.3949 82.4788 31.8605 81.5708 30.1044 81.9843ZM59.365 82.0368C58.113 82.4745 57.398 84.0943 57.4045 86.4781C57.4092 88.1879 57.6684 89.1938 58.2844 89.8925C58.8426 90.5255 59.3638 90.7224 60.4808 90.7224C62.3704 90.7224 63.2914 89.7535 63.6438 87.395C63.9048 85.6469 63.5006 83.7939 62.6347 82.7691C61.9157 81.9184 60.5674 81.6164 59.365 82.0368ZM47.8297 86.7897C47.6165 86.8915 46.7608 87.1178 45.928 87.2924C43.5785 87.7851 43.0366 88.2158 43.0366 89.5899C43.0366 90.1706 43.1011 90.3869 43.3688 90.7037C44.0175 91.4714 45.2691 91.5616 46.6346 90.9391C47.8607 90.3801 48.328 89.4337 48.2581 87.6512L48.2171 86.6042L47.8297 86.7897Z" fill="#090080"/>
</svg>
