<svg width="50" height="28" viewBox="0 0 50 28" fill="none" xmlns="http://www.w3.org/2000/svg">
<path d="M15.1671 0.000360549C14.0203 -0.0103069 12.8837 0.215844 11.8283 0.664659C10.773 1.11347 9.82162 1.77529 9.0338 2.60869H9.02963C8.91852 2.60453 8.80602 2.60314 8.69213 2.60453C7.10128 2.61135 5.54254 3.05279 4.18435 3.88114C2.82616 4.7095 1.72017 5.89326 0.98588 7.30453C0.344213 8.55453 0.10463 9.89619 0.0296296 11.2629C-0.037037 12.4899 0.0296296 13.7337 0.0296296 14.9504V26.7254H6.6338C6.6338 26.7254 6.63796 20.9254 6.6338 15.9379C6.63171 12.5816 6.6088 9.58994 6.6338 8.97536C6.75046 6.07119 7.54421 4.17328 9.02546 2.62119C13.94 2.62328 17.1213 5.97119 17.2963 11.3024C17.338 12.5274 17.3505 19.0733 17.3505 19.0733V26.7254H23.9505V16.3816C23.9505 13.2566 23.9775 10.5483 23.7588 8.68369C23.1505 3.47536 19.9671 0.000360549 15.1671 0.000360549ZM32.6463 0.625361L26.0505 0.633694V10.9774C26.0505 14.1045 26.0234 16.8108 26.2421 18.6754C26.8505 23.8837 30.0338 27.3587 34.8338 27.3587C35.9806 27.3694 37.1172 27.1432 38.1726 26.6944C39.2279 26.2456 40.1793 25.5838 40.9671 24.7504H40.9713C41.0838 24.7545 41.1977 24.7559 41.313 24.7545C44.5275 24.7545 47.5421 22.9149 49.015 20.0566C49.6588 18.8066 49.8963 17.4629 49.9713 16.0983C50.038 14.8691 49.9713 13.6254 49.9713 12.4108V0.633694H43.3671C43.3671 0.633694 43.363 6.43369 43.3671 11.4212C43.3713 14.7774 43.3921 17.7691 43.3671 18.3837C43.2505 21.2858 42.4567 23.1858 40.9755 24.7379C36.0609 24.7358 32.8796 21.3858 32.7046 16.0566C32.6542 13.4646 32.6347 10.872 32.6463 8.27953V0.625361Z" fill="white"/>
</svg>
