<svg width="50" height="50" viewBox="0 0 50 50" fill="none" xmlns="http://www.w3.org/2000/svg">
<path d="M30.1559 3.68282C29.4788 3.00565 28.675 2.46848 27.7902 2.10199C26.9055 1.7355 25.9573 1.54688 24.9997 1.54688C24.042 1.54688 23.0938 1.7355 22.2091 2.10199C21.3244 2.46848 20.5205 3.00565 19.8434 3.68282L11.2497 12.2787C12.4297 12.2047 13.612 12.3826 14.718 12.8007C15.8239 13.2188 16.8283 13.8675 17.6643 14.7037L23.8976 20.9391C24.0427 21.0843 24.215 21.1994 24.4046 21.278C24.5943 21.3566 24.7975 21.3971 25.0028 21.3971C25.2081 21.3971 25.4113 21.3566 25.601 21.278C25.7906 21.1994 25.9629 21.0843 26.108 20.9391L32.3413 14.7037C33.1777 13.8676 34.1825 13.2192 35.2888 12.8014C36.3952 12.3837 37.5778 12.2062 38.758 12.2807L30.1559 3.68282ZM42.6122 16.137L46.3184 19.8453C47.6794 21.2072 48.4465 23.0521 48.4524 24.9774C48.4582 26.9028 47.7023 28.7523 46.3497 30.1224L42.6538 33.8182C42.0735 34.3987 41.3844 34.8592 40.6261 35.1733C39.8677 35.4875 39.0549 35.6492 38.234 35.6492C37.4132 35.6492 36.6004 35.4875 35.842 35.1733C35.0837 34.8592 34.3946 34.3987 33.8143 33.8182L27.5788 27.5828C27.2403 27.2442 26.8384 26.9756 26.396 26.7924C25.9536 26.6092 25.4795 26.5148 25.0007 26.5148C24.5219 26.5148 24.0478 26.6092 23.6054 26.7924C23.1631 26.9756 22.7611 27.2442 22.4226 27.5828L16.1872 33.8203C15.6068 34.4008 14.9177 34.8613 14.1594 35.1754C13.401 35.4896 12.5882 35.6513 11.7674 35.6513C10.9465 35.6513 10.1337 35.4896 9.37536 35.1754C8.61701 34.8613 7.92796 34.4008 7.34758 33.8203L3.63925 30.112C2.29077 28.7406 1.53875 26.8919 1.54694 24.9686C1.55514 23.0453 2.32289 21.2031 3.683 19.8432L7.38092 16.1474C8.5556 14.9885 10.1409 14.3411 11.7911 14.3466C13.4412 14.352 15.0223 15.0099 16.1892 16.1766L22.4226 22.412C22.7611 22.7506 23.1631 23.0192 23.6054 23.2024C24.0478 23.3856 24.5219 23.48 25.0007 23.48C25.4795 23.48 25.9536 23.3856 26.396 23.2024C26.8384 23.0192 27.2403 22.7506 27.5788 22.412L33.8143 16.1766C34.9794 15.0116 36.5575 14.3539 38.2051 14.3465C39.8527 14.3391 41.4366 14.9826 42.6122 16.137ZM11.2455 37.7182C12.4255 37.7922 13.6078 37.6142 14.7138 37.1961C15.8198 36.778 16.8241 36.1294 17.6601 35.2932L23.8955 29.0557C24.0406 28.9105 24.2129 28.7954 24.4025 28.7168C24.5922 28.6382 24.7954 28.5977 25.0007 28.5977C25.206 28.5977 25.4092 28.6382 25.5989 28.7168C25.7885 28.7954 25.9608 28.9105 26.1059 29.0557L32.3413 35.2932C33.1777 36.1293 34.1825 36.7777 35.2888 37.1955C36.3952 37.6132 37.5778 37.7907 38.758 37.7161L30.1559 46.3161C29.4788 46.9933 28.675 47.5305 27.7902 47.897C26.9055 48.2635 25.9573 48.4521 24.9997 48.4521C24.042 48.4521 23.0938 48.2635 22.2091 47.897C21.3244 47.5305 20.5205 46.9933 19.8434 46.3161L11.2455 37.7182Z" fill="#00BEAE"/>
</svg>
