<svg width="113" height="50" viewBox="0 0 113 50" fill="none" xmlns="http://www.w3.org/2000/svg">
<g clip-path="url(#clip0_90_289)">
<path d="M42.6351 0.640351L27.9347 35.7096H18.3444L11.1101 7.72105C10.6715 6.00132 10.2904 5.36842 8.95576 4.64123C6.77418 3.45614 3.17155 2.34781 0.00488281 1.65833L0.218479 0.640351H15.6588C17.6237 0.640351 19.393 1.94868 19.843 4.21404L23.6654 24.5092L33.1022 0.640351H42.6351ZM55.6001 0.640351L48.0987 35.7096H39.0251L46.5273 0.640351H55.6001ZM80.2123 24.2596C80.2501 15.0057 67.4167 14.4921 67.5005 10.3575C67.5312 9.10044 68.7286 7.76228 71.3496 7.42018C72.6479 7.25219 76.2347 7.11842 80.2974 8.99035L81.8869 1.54912C79.704 0.759649 76.8948 0 73.4005 0C64.4312 0 58.122 4.76403 58.0715 11.5912C58.0128 16.6412 62.5781 19.4557 66.0115 21.1377C69.5479 22.8553 70.7338 23.9592 70.7176 25.4943C70.6922 27.8474 67.893 28.889 65.2908 28.9276C60.7277 29 58.0825 27.6943 55.9724 26.7114L54.3255 34.3991C56.4483 35.3719 60.3606 36.2171 64.4128 36.2601C73.9479 36.2601 80.1843 31.5504 80.2123 24.2596ZM103.897 35.7101H112.286L104.957 0.640351H97.2167C95.4711 0.640351 94.004 1.65351 93.3531 3.21096L79.7391 35.7096H89.2667L91.1566 30.4711H102.797L103.897 35.7101ZM93.7694 23.2851L98.5465 10.1154L101.291 23.2851H93.7694ZM67.2123 45.3632H63.5255V48.7943H67.6492V49.8259H62.2834V40.307H67.4378V41.3386H63.5255V44.3461H67.2119L67.2123 45.3632ZM69.554 39.7991H70.7961V49.8254H69.554V39.7991ZM73.9303 46.6338C73.9584 48.3149 75.018 49.0066 76.2742 49.0066C77.1645 49.0066 77.715 48.8513 78.1676 48.6539L78.393 49.5439C77.9553 49.7412 77.193 49.9811 76.1049 49.9811C74.0014 49.9811 72.7448 48.5833 72.7448 46.5211C72.7448 44.4596 73.9584 42.8491 75.9501 42.8491C78.1957 42.8491 78.7746 44.7987 78.7746 46.0553C78.7746 46.3092 78.7601 46.4925 78.7316 46.6342L73.9303 46.6338ZM77.5737 45.7443C77.5882 44.968 77.2492 43.739 75.8509 43.739C74.5799 43.739 74.043 44.8829 73.9439 45.7443H77.5737ZM85.536 49.5855C85.2115 49.7412 84.4908 49.9816 83.5733 49.9816C81.5115 49.9816 80.1698 48.5833 80.1698 46.493C80.1698 44.3886 81.6097 42.8496 83.8413 42.8496C84.5755 42.8496 85.2251 43.0325 85.5641 43.2167L85.2825 44.1627C84.9847 44.0075 84.5189 43.8373 83.8413 43.8373C82.2733 43.8373 81.4268 45.0097 81.4268 46.4228C81.4268 48.0039 82.4435 48.9785 83.7992 48.9785C84.5053 48.9785 84.9711 48.8092 85.3242 48.6539L85.536 49.5855ZM89.022 41.3522V42.9903H90.8009V43.936H89.022V47.6224C89.022 48.4706 89.2623 48.95 89.954 48.95C90.2926 48.95 90.4909 48.9224 90.6746 48.8649L90.7312 49.8123C90.4908 49.8965 90.1097 49.9811 89.6294 49.9811C89.0501 49.9811 88.5838 49.7833 88.2878 49.4592C87.9487 49.0772 87.8075 48.4706 87.8075 47.6654V43.936H86.7479V42.9903H87.8075V41.7193L89.022 41.3522ZM92.5365 45.1232C92.5365 44.318 92.5216 43.6263 92.4799 42.9903H93.5676L93.6246 44.3456H93.6658C93.9772 43.4285 94.7391 42.8491 95.572 42.8491C95.6996 42.8491 95.7987 42.8636 95.9119 42.8772V44.05C95.7847 44.021 95.658 44.021 95.4873 44.021C94.6128 44.021 93.9904 44.6706 93.8215 45.6035C93.7923 45.7951 93.7781 45.9887 93.779 46.1825V49.8263H92.5365V45.1232ZM103.55 46.3513C103.55 48.8794 101.784 49.9811 100.147 49.9811C98.3101 49.9811 96.8702 48.625 96.8702 46.4649C96.8702 44.1908 98.3812 42.8496 100.26 42.8496C102.222 42.8496 103.55 44.2746 103.55 46.3513ZM98.1408 46.4228C98.1408 47.9197 98.9882 49.05 100.203 49.05C101.39 49.05 102.279 47.9333 102.279 46.3943C102.279 45.2364 101.7 43.7811 100.231 43.7811C98.7768 43.7811 98.1408 45.1377 98.1408 46.4228ZM105.454 44.8408C105.454 44.1211 105.44 43.5557 105.397 42.9912H106.499L106.57 44.1211H106.598C106.937 43.4851 107.728 42.85 108.858 42.85C109.803 42.85 111.272 43.4149 111.272 45.7583V49.8263H110.03V45.886C110.03 44.7851 109.62 43.8662 108.448 43.8662C107.643 43.8662 107.007 44.4456 106.782 45.1373C106.725 45.293 106.697 45.5044 106.697 45.7167V49.8263H105.454V44.8408Z" fill="#1A1F71"/>
</g>
<defs>
<clipPath id="clip0_90_289">
<rect width="112.29" height="50" fill="white"/>
</clipPath>
</defs>
</svg>
