<svg width="223" height="63" viewBox="0 0 223 63" fill="none" xmlns="http://www.w3.org/2000/svg">
<path d="M150.662 40.3192H145.683L150.523 23.2347C150.888 21.9463 149.933 20.663 148.609 20.663H144.79C143.458 20.663 142.286 21.5563 141.919 22.8535L136.971 40.3192H131.992L137.397 21.2382C138.254 18.2123 140.988 16.127 144.097 16.127H150.247C153.888 16.127 156.515 19.6562 155.511 23.1994L150.662 40.3192H150.662Z" fill="white"/>
<path d="M159.53 50.6829H162.522L162.175 51.9114H158.908C158.012 51.9114 157.365 51.0427 157.612 50.1701L158.638 46.5457C158.838 45.8432 159.472 45.3594 160.194 45.3594H163.694L163.346 46.5879H160.585C160.224 46.5879 159.906 46.8298 159.807 47.1814L159.012 49.9868C158.913 50.3358 159.172 50.6836 159.53 50.6836V50.6829Z" fill="#3EC252"/>
<path d="M192.863 45.3594H189.953L188.098 51.9114H189.446L190.064 49.7272H191.483L192.083 51.9114H193.431L192.816 49.6686C193.455 49.5036 193.976 49.0071 194.164 48.3431L194.417 47.4491C194.714 46.402 193.938 45.3594 192.862 45.3594H192.863ZM193.117 47.284L192.902 48.0419C192.803 48.3935 192.485 48.6354 192.125 48.6354H190.375L190.955 46.5885H192.598C192.957 46.5885 193.216 46.9357 193.117 47.2847L193.117 47.284Z" fill="#3EC252"/>
<path d="M179.282 47.4491L178.018 51.9114H176.669L177.98 47.284C178.079 46.935 177.82 46.5879 177.461 46.5879H176.427C176.066 46.5879 175.749 46.8298 175.65 47.1807L175.576 47.4409L174.31 51.9114H172.962L174.272 47.284C174.371 46.935 174.113 46.5879 173.754 46.5879H172.72C172.359 46.5879 172.041 46.8298 171.942 47.1807L170.602 51.9114H169.254L170.718 46.7435C170.95 45.9239 171.69 45.3594 172.532 45.3594H174.018C174.432 45.3594 174.801 45.5131 175.081 45.7619C175.404 45.5074 175.809 45.3594 176.24 45.3594H177.726C178.802 45.3594 179.578 46.402 179.282 47.4491Z" fill="#3EC252"/>
<path d="M165.142 51.9114H166.629C167.471 51.9114 168.212 51.347 168.444 50.5273L169.316 47.4491C169.612 46.4027 168.836 45.3594 167.76 45.3594H166.274C165.432 45.3594 164.691 45.9239 164.459 46.7435L163.587 49.8217C163.291 50.8682 164.067 51.9114 165.142 51.9114ZM166.441 50.6829H165.407C165.048 50.6829 164.789 50.3352 164.888 49.9861L165.683 47.1807C165.783 46.8298 166.1 46.5873 166.461 46.5873H167.495C167.854 46.5873 168.113 46.935 168.014 47.284L167.219 50.0895C167.119 50.4404 166.802 50.6829 166.441 50.6829Z" fill="#3EC252"/>
<path d="M186.794 45.3594H183.346L181.49 51.9114H185.663C186.505 51.9114 187.245 51.3463 187.478 50.5273L187.59 50.1342C187.811 49.3492 187.229 48.5674 186.423 48.5674H186.916C187.577 48.5674 188.159 48.1238 188.341 47.4806L188.35 47.4497C188.646 46.4027 187.87 45.36 186.794 45.36V45.3594ZM186.313 49.8778L186.252 50.0895C186.154 50.4404 185.836 50.6829 185.476 50.6829H183.186L183.611 49.181H185.794C186.153 49.181 186.412 49.5288 186.313 49.8778ZM187.048 47.2847L187.027 47.359C186.927 47.7106 186.61 47.9525 186.25 47.9525H183.96L184.347 46.5879H186.53C186.888 46.5879 187.147 46.935 187.049 47.2847H187.048Z" fill="#3EC252"/>
<path d="M156.453 50.7344L156.119 51.9112H154.771L155.104 50.7344H156.453Z" fill="#3EC252"/>
<path d="M180.812 50.7344L180.479 51.9112H179.131L179.464 50.7344H180.812Z" fill="#3EC252"/>
<path d="M56.8655 40.248L59.656 30.3941C60.7507 26.5297 57.8842 22.6797 53.9131 22.6797H42.2002C39.0904 22.6797 36.3571 24.765 35.5002 27.7916L32.7097 37.6455C31.615 41.5099 34.4814 45.3599 38.4525 45.3599H50.1654C53.2752 45.3599 56.0085 43.2746 56.8655 40.248Z" fill="white"/>
<path d="M47.7014 28.6562L50.4919 18.8023C51.5866 14.9379 48.7202 11.0879 44.7491 11.0879H33.0362C29.9264 11.0879 27.1931 13.1732 26.3361 16.1998L23.5456 26.0537C22.4509 29.9181 25.3174 33.7681 29.2885 33.7681H41.0014C44.1112 33.7681 46.8445 31.6828 47.7014 28.6562Z" fill="#3EC252"/>
<path d="M65.5566 40.3211H78.9741C82.0839 40.3211 84.8172 38.2358 85.6741 35.2099L88.8941 23.844C89.9888 19.9789 87.1229 16.1289 83.1512 16.1289H72.4098L65.5566 40.3211ZM76.1039 20.665H82.1735C83.4972 20.665 84.4531 21.9483 84.0878 23.2366L81.1529 33.5946C80.7857 34.8911 79.6139 35.7851 78.2815 35.7851H71.8198L76.1039 20.665Z" fill="white"/>
<path d="M119.269 35.7851H129.321L128.037 40.3211H116.97C113.66 40.3211 111.272 37.1125 112.184 33.8919L115.975 20.51C116.71 17.9162 119.052 16.1289 121.718 16.1289H133.645L132.361 20.665H123.161C121.828 20.665 120.657 21.5583 120.289 22.8555L117.355 33.2134C116.989 34.5018 117.945 35.7851 119.269 35.7851Z" fill="white"/>
<path d="M199.689 16.127L198.405 20.6636H191.559L185.99 40.3205H181.011L186.58 20.6636H179.734L181.019 16.127H199.689Z" fill="white"/>
<path d="M165.75 16.1276H177.678L176.393 20.663H167.194C165.861 20.663 164.69 21.557 164.322 22.8535L163.657 25.199H173.117L171.832 29.7345H162.373L161.388 33.2108C161.022 34.4998 161.978 35.7831 163.301 35.7831H173.355L172.07 40.3186H161.003C157.693 40.3186 155.305 37.1106 156.217 33.8894L160.008 20.5074C160.743 17.9143 163.086 16.127 165.751 16.127L165.75 16.1276Z" fill="white"/>
<path d="M94.8141 16.1289L87.9609 40.3211H92.9396L95.2248 32.2571H103.664C106.773 32.2571 109.507 30.1717 110.364 27.1458L111.299 23.844C112.394 19.9789 109.528 16.1289 105.556 16.1289H94.8141ZM102.828 28.225H96.3668L98.5076 20.665H104.578C105.902 20.665 106.857 21.9483 106.492 23.2366L105.7 26.0345C105.333 27.3317 104.161 28.225 102.828 28.225Z" fill="white"/>
<path d="M33.8066 33.7678L35.4981 27.7922C36.3551 24.7656 39.0884 22.6797 42.1988 22.6797H49.3923L47.7008 28.6553C46.8439 31.6818 44.1106 33.7678 41.0002 33.7678H33.8066Z" fill="#007030"/>
</svg>
