<svg width="157" height="69" viewBox="0 0 157 69" fill="none" xmlns="http://www.w3.org/2000/svg">
<rect width="73.7364" height="19.7907" transform="translate(66.3564 40.5938)" fill="#EDD946"/>
<rect width="51.0728" height="49.796" transform="translate(14.0068 7.7168)" fill="white"/>
<rect width="93.8463" height="37.347" transform="translate(43.6924 3.24805)" fill="white"/>
<path fill-rule="evenodd" clip-rule="evenodd" d="M7.25042 0.240051C4.28948 0.942303 2.01419 2.74996 0.794503 5.36967L0 7.07678L0.00383079 28.1443C0.00829966 52.1907 -0.177476 50.5563 2.88785 53.5419C8.42701 58.9374 18.7932 62.8014 34.4678 65.3138C52.5079 68.2052 70.023 69.0795 92.4035 68.2058C100.232 67.9 102.567 67.7219 111.556 66.7448C128.546 64.8976 140.639 61.7381 148.788 57.017C152.021 55.1446 155.821 51.2873 156.527 49.1633C157.002 47.7333 157.047 45.4663 156.97 27.1634C156.889 8.19751 156.842 6.67554 156.304 5.59408C155.324 3.62426 153.599 1.89034 151.688 0.951561L149.86 0.0542739L79.1565 0.00479755C38.6008 -0.0236117 7.93991 0.0766185 7.25042 0.240051ZM18.6882 10.3988C17.3284 10.5622 17.0832 10.7026 16.8904 11.4282C16.5824 12.5891 17.0053 13.2473 17.6929 12.6766C18.6132 11.9131 18.5117 12.516 17.5413 13.5784C15.8102 15.4738 16.5281 16.4841 18.3492 14.7154C20.1741 12.9431 20.0837 13.721 18.2381 15.6727C16.4956 17.5148 16.2868 17.9923 17.089 18.3C17.4222 18.428 18.0929 17.9262 19.1296 16.7736C19.979 15.8294 20.7815 15.161 20.9127 15.2883C21.0442 15.4157 20.236 16.463 19.1166 17.6157C16.7117 20.093 16.3982 20.5766 16.8828 21.0612C17.1451 21.3235 17.9109 20.7496 19.7885 18.8832C23.1516 15.5399 23.0855 16.351 19.7103 19.8453C16.9345 22.7191 16.2881 23.7383 17.0545 24.0323C17.3191 24.1341 17.9661 23.6952 18.6221 22.9694C21.5186 19.7633 23.6448 17.6935 23.8408 17.8895C23.9592 18.0083 23.3221 18.8558 22.4251 19.7732C16.976 25.3455 16.4633 25.9948 16.9351 26.7251C17.1684 27.0861 18.1002 26.2824 21.2093 23.037C23.3958 20.7547 25.1907 19.1028 25.1977 19.3662C25.2051 19.6295 23.4392 21.6405 21.2737 23.835C17.096 28.0693 16.3107 29.1077 16.8658 29.6628C17.0969 29.8939 17.5212 29.6593 18.2521 28.896C23.5126 23.4051 26.3258 20.6424 26.5725 20.7244C26.8815 20.8275 25.7697 22.0507 20.0742 27.873C18.1589 29.8307 16.5923 31.662 16.5923 31.9429C16.5923 32.6493 17.7369 32.5905 18.2499 31.8583C19.1804 30.5301 27.7935 21.8426 27.9876 22.0366C28.1025 22.1516 26.7733 23.7166 25.034 25.5141C23.2946 27.3118 20.801 29.8888 19.4926 31.2409C16.8994 33.921 16.4566 34.5297 16.7535 35.0098C17.1238 35.6086 17.5358 35.3194 20.0553 32.693C21.4448 31.2444 24.0256 28.5539 25.7908 26.7136C27.5557 24.8737 29.0927 23.4609 29.206 23.5743C29.3902 23.7581 27.3275 25.9849 19.5181 34.0314C16.8279 36.8034 16.5233 37.2595 16.9345 37.8973C17.1675 38.259 17.9633 37.5998 20.6149 34.8476C27.5857 27.6132 30.4234 24.7917 30.5763 24.9446C30.7139 25.0822 28.9596 27.1219 26.9811 29.1246C21.5636 34.6076 17.2355 39.1898 16.9239 39.7723C16.6287 40.3239 16.6232 40.5914 16.9016 40.8669C17.179 41.1414 17.9511 40.5209 20.0228 38.3589C30.1786 27.7594 31.8707 26.0599 32.023 26.3067C32.1171 26.4586 30.4305 28.3706 28.2749 30.5556C20.6832 38.2519 16.5923 42.6583 16.5923 43.1393C16.5923 44.3248 17.9677 43.402 20.9817 40.1943C28.3942 32.3055 33.1332 27.519 33.3371 27.7147C33.4572 27.8293 32.9343 28.5583 32.1759 29.3346C31.4174 30.1109 29.0805 32.5308 26.9827 34.712C24.8849 36.8934 21.689 40.2007 19.8804 42.062C18.0721 43.9229 16.5923 45.6824 16.5923 45.9722C16.5923 47.0416 17.7216 46.4402 19.7674 44.2817C23.5618 40.2789 33.3336 30.125 34.1486 29.3381C34.5875 28.9146 36.2336 27.3236 37.807 25.8026C41.4746 22.2563 40.456 23.5363 35.7446 28.3942C31.149 33.1328 29.3637 35.0969 29.3618 35.4161C29.3611 35.5534 29.5877 35.7529 29.8658 35.8595C30.2086 35.9913 30.9 35.486 32.0204 34.2849C32.9276 33.3122 37.0578 29.0189 41.1992 24.7441C54.9984 10.4999 55.0606 10.4284 53.6756 10.4284C53.2747 10.4284 50.8644 12.6986 47.0435 16.6743C42.1501 21.7663 41 22.8129 40.8164 22.3402C40.6929 22.0213 37.9481 19.1389 34.7171 15.9347L28.8424 10.1092L24.5529 10.1594C22.1934 10.1871 19.5545 10.2947 18.6882 10.3988ZM53.87 12.4168C51.7147 14.6732 49.5355 16.9348 40.5502 26.2415C31.7982 35.3063 30.6057 36.6128 30.7979 36.924C31.3488 37.8153 31.8889 37.3013 47.5552 20.9782C51.5053 16.8626 55.2761 12.9907 55.9343 12.374C57.2383 11.1524 57.4157 10.6059 56.6091 10.2963C56.2388 10.1542 55.4418 10.7713 53.87 12.4168ZM58.2291 10.7042C57.8885 11.0314 56.2509 12.7194 54.5895 14.4549C52.928 16.1904 49.337 19.9216 46.6094 22.7459C32.746 37.1015 31.2384 38.8377 32.6371 38.8377C32.8835 38.8377 35.8024 36.007 39.1234 32.5471C42.4441 29.0869 47.257 24.0955 49.8186 21.4547C59.3702 11.6076 59.9729 10.935 59.6205 10.5105C59.1742 9.97261 58.9584 10.0026 58.2291 10.7042ZM59.4507 12.2505C58.2629 13.4558 54.2744 17.593 50.5876 21.4445C46.9008 25.296 42.0738 30.3184 39.8607 32.6052C34.3005 38.3509 33.5101 39.2319 33.5101 39.6833C33.5101 40.6428 34.2932 40.3769 35.6814 38.9465C36.5062 38.0965 40.9875 33.4549 45.6399 28.6314C50.2924 23.8082 55.9662 17.9441 58.2485 15.6002C60.5308 13.2563 62.3982 11.1099 62.3982 10.8303C62.3982 9.72938 61.5172 10.1539 59.4507 12.2505ZM60.4542 13.9997C58.7143 15.7882 56.6445 17.923 55.8545 18.7437C53.9291 20.7435 41.0166 34.1671 37.8424 37.4686C34.7825 40.6514 34.6488 40.8484 35.3574 41.1293C35.6581 41.2486 38.3455 41.3565 41.3294 41.369L46.7543 41.3913L49.3848 38.5983L52.0154 35.8052L52.0199 45.1078C52.0234 53.2935 52.0847 54.4337 52.529 54.6042C52.8067 54.7108 55.4466 54.7979 58.3951 54.7979C62.7819 54.7979 63.8289 54.7105 64.1554 54.3169C64.4708 53.9374 64.5113 49.3852 64.3492 32.6908C64.2362 21.0612 64.1462 11.3663 64.1487 11.1466C64.1589 10.3451 63.556 10.8108 60.4542 13.9997ZM65.5647 11.1626C65.1912 11.373 65.113 12.8605 65.1213 19.6215C65.1357 31.5525 65.6337 34.3777 68.2326 37.2713C70.061 39.3069 71.7985 39.9594 75.326 39.9338C76.8183 39.9233 78.6438 39.7401 79.3825 39.5268C82.5158 38.6232 85.1885 35.3759 85.8298 31.6939C86.3437 28.7422 86.3016 11.1715 85.78 11.017C85.5607 10.9523 84.0521 10.9468 82.4283 11.0056L79.4757 11.1122L79.461 12.6057C79.4527 13.4271 79.4169 17.9058 79.3812 22.5582C79.3126 31.4682 79.2289 32.0163 77.7047 33.5405C77.036 34.2092 74.7288 34.2025 73.7673 33.529C72.247 32.4641 72.1339 31.5962 72.1339 20.9944V11.1106L69.076 11.0091C67.3941 10.9529 65.814 11.0222 65.5647 11.1626ZM130.309 10.9593C129.998 11.0844 129.91 14.2468 129.91 25.26V39.3998L133.022 39.5492C134.734 39.6312 136.242 39.6398 136.374 39.5683C136.506 39.4968 136.613 33.055 136.613 25.2526V11.0668H134.086C132.696 11.0668 131.367 11.0065 131.133 10.9325C130.899 10.8587 130.529 10.8705 130.309 10.9593ZM90.8046 11.7851C90.7085 12.1802 90.6699 18.5362 90.7187 25.9099L90.8074 39.3165H98.9472H107.087V36.6032V33.89L102.458 33.7304L97.83 33.5708L97.746 22.3188L97.6621 11.0668H94.3206C91.1199 11.0668 90.9718 11.0972 90.8046 11.7851ZM107.498 11.4614C107.421 11.6832 107.421 12.9731 107.496 14.3275L107.634 16.7902L110.712 16.8812L113.79 16.9721L113.828 28.0865C113.849 34.1993 113.993 39.3136 114.147 39.4518C114.302 39.5897 115.827 39.6347 117.537 39.5514L120.645 39.4004L120.729 28.1861L120.813 16.9721L123.925 16.8808C125.637 16.8304 127.048 16.651 127.061 16.4818C127.074 16.3127 127.096 15.0607 127.109 13.7003L127.133 11.2264L117.385 11.1422C109.754 11.0761 107.607 11.1454 107.498 11.4614ZM22.6399 42.0202C19.5966 45.1752 16.9833 47.9775 16.8323 48.2472C16.5438 48.7634 16.7563 49.3714 17.2256 49.3714C17.3778 49.3714 19.0572 47.7671 20.9574 45.8059C22.858 43.845 25.229 41.4127 26.2268 40.4008C27.2247 39.389 28.2784 38.1986 28.5685 37.7559C29.0659 36.9971 28.9979 36.284 28.4284 36.284C28.2876 36.284 25.6829 38.8655 22.6399 42.0202ZM22.6907 44.7918C19.6713 47.891 17.0574 50.6949 16.8818 51.023C16.5556 51.6327 16.7289 52.2443 17.2281 52.2443C17.3814 52.2443 18.9889 50.7064 20.8004 48.8269C22.6115 46.9471 25.0062 44.4691 26.1218 43.3206C27.2374 42.1718 28.363 40.9148 28.6231 40.5276C29.0732 39.8579 28.9755 39.1569 28.4326 39.1569C28.2937 39.1569 25.71 41.6927 22.6907 44.7918ZM24.4987 45.7261C22.5202 47.7863 20.0039 50.3824 18.9065 51.4954C17.8094 52.6088 16.9115 53.7353 16.9115 53.999C16.9115 55.1417 18.279 54.2754 21.0659 51.3665C22.706 49.6546 25.183 47.0681 26.5703 45.6182C28.9487 43.1326 29.3461 42.3975 28.4686 42.1047C28.2634 42.0364 26.4768 43.666 24.4987 45.7261ZM68.9339 43.0672C68.5359 43.9791 66.0691 53.4419 66.0691 54.0571C66.0691 54.3922 66.387 54.4902 67.2393 54.4181C68.3041 54.3281 68.4411 54.2045 68.7641 53.0423C69.1076 51.8057 69.166 51.7623 70.6228 51.6685L72.1273 51.5711L72.516 53.0251C72.8908 54.4267 72.9482 54.4787 74.1153 54.4787C74.8731 54.4787 75.3247 54.3293 75.3222 54.0797C75.3203 53.8604 74.9503 52.2443 74.5005 50.4887C74.0508 48.733 73.4769 46.4593 73.2253 45.4363C72.5234 42.5797 72.3328 42.3489 70.6793 42.3489C69.5002 42.3489 69.1922 42.4757 68.9339 43.0672ZM76.0908 42.7993C75.688 43.8492 76.1087 44.4212 77.404 44.5834L78.6777 44.743L78.7658 49.6109L78.8539 54.4787H80.1141H81.3743L81.4624 49.6109L81.5505 44.743L82.8273 44.5834C83.9978 44.4372 84.1041 44.344 84.1041 43.4662V42.5085L80.1875 42.4188C76.975 42.3454 76.2386 42.4137 76.0908 42.7993ZM87.7728 43.0672C87.6033 43.4623 87.1101 45.15 86.6769 46.8178C84.4706 55.3122 84.5312 54.5486 86.0724 54.4181C87.1372 54.3281 87.2742 54.2045 87.5972 53.0423C87.9394 51.8108 88.0042 51.762 89.424 51.6697L90.8965 51.5736L91.3306 52.9465C91.7306 54.2103 91.8602 54.3271 92.9621 54.4181C93.8479 54.4915 94.1591 54.3951 94.1591 54.0475C94.1591 53.5795 93.1523 49.5183 91.872 44.8228L91.1975 42.3489H89.6392C88.3269 42.3489 88.032 42.4626 87.7728 43.0672ZM98.6612 42.8973C98.0649 43.1913 97.1673 44.0778 96.6661 44.8678C95.8841 46.1012 95.7558 46.6231 95.7602 48.5562C95.7698 52.5405 97.656 54.6278 101.248 54.6278C103.334 54.6278 103.997 54.2084 103.538 53.1796C103.297 52.6391 102.925 52.4856 101.741 52.4387C99.8234 52.3624 98.7324 51.4019 98.4537 49.5448C97.9937 46.4759 99.6322 44.1378 102.107 44.3312C103.296 44.4241 103.981 43.77 103.637 42.8712C103.361 42.1536 100.137 42.1708 98.6612 42.8973ZM107.963 42.7176C107.744 42.9363 107.566 43.3174 107.566 43.5651C107.566 43.8125 107.075 45.8308 106.475 48.0499C105.876 50.2691 105.283 52.6331 105.159 53.3034L104.933 54.5221L106.143 54.4206C107.253 54.3274 107.381 54.2147 107.707 53.0423C108.05 51.8095 108.113 51.7623 109.543 51.6694C111.119 51.5669 111.069 51.5184 111.532 53.6009C111.705 54.3788 111.872 54.4787 112.998 54.4787C113.945 54.4787 114.269 54.3498 114.269 53.9728C114.269 53.3944 112.184 45.3112 111.6 43.6258C111.244 42.5979 111.099 42.5009 109.787 42.4144C108.954 42.3595 108.195 42.4856 107.963 42.7176ZM116.378 42.8539C116.102 43.5744 116.147 53.6098 116.428 54.0338C117.131 55.0906 121.552 54.7143 123.433 53.4368C124.749 52.5437 125.591 50.4536 125.585 48.0946C125.576 44.186 123.478 42.3489 119.024 42.3489C117.082 42.3489 116.532 42.454 116.378 42.8539ZM130.043 42.641C128.394 43.3512 127.043 45.956 127.039 48.4355C127.032 52.7684 129.814 55.4501 133.333 54.5024C136.188 53.734 137.698 50.1934 136.8 46.3773C136.161 43.6602 134.996 42.5826 132.559 42.4533C131.541 42.3991 130.409 42.4836 130.043 42.641ZM118.876 44.6826C118.788 44.9128 118.757 46.7444 118.807 48.7525L118.897 52.4039L119.76 52.5035C120.979 52.6439 121.911 52.048 122.436 50.7925C123.363 48.5734 122.783 45.3817 121.309 44.5929C120.449 44.1323 119.068 44.1834 118.876 44.6826ZM130.693 45.1088C129.907 45.9566 129.711 47.0895 129.898 49.6891C130.073 52.1262 132.026 53.3487 133.396 51.8785C134.648 50.535 134.648 46.2927 133.396 44.9492C132.542 44.0324 131.641 44.0857 130.693 45.1088ZM24.5427 48.456C22.54 50.5966 20.5581 52.6707 20.138 53.0653C19.2359 53.9125 19.3997 54.9224 20.379 54.5528C20.7196 54.4241 22.8187 52.4186 25.0442 50.0954C28.8542 46.1181 29.5606 45.022 28.5328 44.6798C28.3409 44.6159 26.5454 46.3151 24.5427 48.456ZM70.4032 45.5751C70.0342 46.671 69.5838 48.6226 69.5822 49.132C69.581 49.5378 69.8373 49.6907 70.5191 49.6907C71.0356 49.6907 71.5214 49.5831 71.5993 49.4513C71.7796 49.1461 71.0818 45.6591 70.7799 45.3574C70.6551 45.2326 70.4856 45.3306 70.4032 45.5751ZM89.2296 45.6208C89.1626 45.8404 88.9519 46.5082 88.7607 47.1048C88.0527 49.3172 88.6091 50.4401 90.0353 49.6766C90.5039 49.426 90.6067 49.1365 90.4592 48.4809C89.7407 45.285 89.5013 44.7283 89.2296 45.6208ZM109.198 45.925C109.032 46.3604 108.799 47.3656 108.681 48.1588C108.482 49.4867 108.523 49.6163 109.21 49.7957C110.498 50.1324 110.797 49.4685 110.307 47.3608C109.79 45.1385 109.594 44.8837 109.198 45.925ZM25.1093 50.669C23.4095 52.4441 22.0188 54.0191 22.0188 54.1688C22.0188 54.744 22.7175 54.8318 23.4539 54.3491C23.8769 54.0724 24.9117 53.1014 25.7541 52.1919C26.5965 51.2825 27.6869 50.1749 28.1772 49.7302C29.0524 48.937 29.2449 47.7853 28.5408 47.5539C28.3534 47.4923 26.8091 48.8942 25.1093 50.669ZM26.3181 52.2555C24.7658 53.8247 24.5015 54.2377 24.8916 54.4848C25.5549 54.9052 25.652 54.8854 26.6041 54.1362L27.4452 53.4748V54.1362C27.4452 54.8273 27.9403 54.9802 28.6736 54.5154C29.1872 54.1902 29.0087 53.0075 28.4638 53.1221C27.9317 53.2338 27.9898 52.7196 28.5625 52.2443C29.1469 51.7594 29.199 50.3291 28.6324 50.3291C28.4073 50.3291 27.3658 51.196 26.3181 52.2555Z" fill="#494486"/>
</svg>
