<svg width="216" height="74" viewBox="0 0 216 74" fill="none" xmlns="http://www.w3.org/2000/svg">
<path fill-rule="evenodd" clip-rule="evenodd" d="M207.957 0.303592C205.39 1.33184 204.145 3.36889 204.327 6.24172C204.428 7.81794 204.612 8.35468 205.378 9.30278C206.566 10.7724 207.759 11.464 209.524 11.7059C212.17 12.0684 214.999 10.0584 215.818 7.23384C216.518 4.82459 215.132 1.79085 212.787 0.594114C211.502 -0.0610235 209.212 -0.198842 207.957 0.303592ZM208.041 1.14937C205.072 2.52734 204.048 6.02921 205.846 8.6531C208.035 11.8477 212.857 11.5772 214.599 8.1622C216.748 3.94935 212.287 -0.821512 208.041 1.14937ZM207.068 5.82278C207.148 9.00708 207.195 9.23811 207.761 9.23811C208.27 9.23811 208.383 9.00496 208.461 7.79608C208.595 5.70316 209.661 5.95939 211.124 8.43725C211.646 9.32038 212.406 9.65341 212.861 9.19833C213.098 8.96123 212.587 7.93572 211.801 7.07142C211.215 6.4266 211.216 6.41841 211.991 5.64335C212.927 4.7074 212.984 3.8355 212.163 3.01461C211.664 2.51491 211.151 2.40744 209.269 2.40744H206.982L207.068 5.82278ZM208.52 4.38074C208.52 5.12696 208.598 5.16916 209.81 5.08112C210.867 5.00492 211.101 4.87802 211.101 4.38074C211.101 3.88347 210.867 3.75657 209.81 3.68037C208.598 3.59233 208.52 3.63453 208.52 4.38074ZM12.4938 15.59C9.65259 16.5102 7.81044 17.6068 5.60549 19.6906C2.03442 23.0652 0.293655 26.8215 0.0386429 31.7034C-0.148669 35.2894 0.323712 37.5721 1.9233 40.811C3.61276 44.2315 6.41637 47.0406 9.93098 48.8336C11.8618 49.8184 15.5598 50.6775 17.8685 50.6775C19.6372 50.6775 24.3692 49.7425 24.8045 49.3072C24.8899 49.2222 24.092 47.8806 23.0322 46.3262L21.1051 43.5002L18.1967 43.5211C15.6517 43.5393 15.071 43.4401 13.5521 42.7291C7.22634 39.7667 5.04507 32.2101 8.89302 26.5874C13.6548 19.6289 24.0134 20.4468 27.7596 28.0768C28.5396 29.6655 28.6458 30.2098 28.6458 32.6142C28.6458 34.9603 28.5277 35.5984 27.811 37.1288C27.3519 38.1091 26.9761 39.0071 26.9761 39.1243C26.9761 39.4449 31.7879 43.2397 32.1944 43.2397C32.7785 43.2397 34.8195 39.1313 35.3159 36.9564C36.6769 30.9946 35.114 24.9878 31.0745 20.6535C27.3453 16.6523 23.1898 14.8444 17.7768 14.8681C15.3882 14.8784 14.1812 15.0436 12.4938 15.59ZM38.1007 20.8317C37.7406 21.1921 37.8946 43.4683 38.2604 43.9091C38.4759 44.169 39.3821 44.3022 40.931 44.3022C42.857 44.3022 43.3697 44.1981 43.8026 43.72C44.3215 43.1465 44.3467 43.1474 45.4253 43.784C46.2565 44.2743 47.0382 44.4331 48.6643 44.4422C53.5744 44.4692 57.0478 40.9355 57.1146 35.8456C57.1816 30.6974 54.1546 27.102 49.4706 26.7668C47.8212 26.6487 47.136 26.7456 45.969 27.262C45.1709 27.6148 44.3964 27.8285 44.2474 27.7365C44.0986 27.6445 43.9769 26.0064 43.9769 24.0959V20.6226H41.1435C39.5849 20.6226 38.2158 20.7167 38.1007 20.8317ZM113.94 21.0033C113.86 21.2124 113.83 26.5064 113.874 32.7672L113.953 44.1505L116.593 44.2379C118.963 44.3165 119.265 44.264 119.554 43.7242C119.873 43.128 119.887 43.1283 121.317 43.7758C122.998 44.5375 125.764 44.6459 127.589 44.0214C129.083 43.5105 131.265 41.5214 132.095 39.9139C133.02 38.1215 133.188 34.2426 132.433 32.1014C131.616 29.7833 129.556 27.789 127.3 27.1336C125.271 26.5437 122.916 26.6472 121.423 27.3916C120.864 27.6706 120.287 27.8248 120.14 27.7341C119.993 27.6433 119.873 26.0064 119.873 24.0959V20.6226H116.98C114.941 20.6226 114.043 20.7349 113.94 21.0033ZM65.3797 27.0993C63.3444 27.776 62.3156 28.4341 61.0563 29.8649C58.7032 32.538 58.2673 36.2557 59.9124 39.6182C63.1945 46.3262 74.4147 46.0387 77.4587 39.1683C78.3428 37.1734 78.3133 34.0326 77.3907 31.9336C76.5826 30.0944 74.8518 28.4065 72.8795 27.534C71.1317 26.7608 67.1001 26.527 65.3797 27.0993ZM89.1325 27.1281C88.5047 27.3521 87.797 27.6964 87.5596 27.8934C87.2163 28.1785 87.0602 28.1239 86.7931 27.6248C86.4922 27.0628 86.1753 26.9979 83.7311 26.9979H81.0049L81.0854 35.5742L81.1661 44.1505L83.7001 44.2391C85.3073 44.2953 86.3899 44.1984 86.6601 43.9744C86.994 43.6972 87.086 42.5421 87.086 38.6255V33.63L87.9734 32.7426C89.2652 31.4509 91.4549 31.5787 92.1316 32.9852C92.2743 33.2821 92.4613 35.9157 92.5469 38.8377L92.7024 44.1505H95.5864H98.4705L98.6223 38.7348L98.7741 33.3191L99.6259 32.5872C100.927 31.4694 103.039 31.6776 103.668 32.9852C103.811 33.2821 103.998 35.9157 104.083 38.8377L104.239 44.1505H107.123H110.007L110.09 38.5602C110.156 34.113 110.072 32.623 109.68 31.2742C108.373 26.7778 102.957 25.2671 98.6105 28.1864L97.3011 29.0656L96.2161 28.221C94.2513 26.6915 91.5317 26.272 89.1325 27.1281ZM141.276 27.1014C139.383 27.7277 138.332 28.3692 137.135 29.6294C135.325 31.5356 134.928 32.5844 134.916 35.4983C134.907 37.7178 135.017 38.2909 135.71 39.5967C136.759 41.5773 137.833 42.5624 140.062 43.5894C143.153 45.0138 147.425 44.7036 150.178 42.8545C152.681 41.1735 153.951 38.6291 153.932 35.3346C153.903 30.4044 150.322 27.0121 144.919 26.7963C143.455 26.738 142.008 26.8591 141.276 27.1014ZM164.526 27.3573C163.016 27.9368 162.851 27.9481 162.519 27.4933C162.232 27.1011 161.609 26.9979 159.529 26.9979H156.901L156.982 35.5742L157.062 44.1505H159.795H162.527L162.682 39.1413C162.839 34.0732 163.048 33.106 164.17 32.2444C164.754 31.7966 166.458 31.7441 167.217 32.1503C168.132 32.64 168.253 33.3067 168.429 38.8377L168.599 44.1505L171.133 44.2391C172.74 44.2953 173.823 44.1984 174.093 43.9744C174.427 43.6972 174.519 42.5421 174.519 38.6255V33.63L175.406 32.7426C176.698 31.4509 178.899 31.5796 179.557 32.9852C179.696 33.2821 179.883 35.9157 179.972 38.8377L180.135 44.1505L182.935 44.2376C185.71 44.3241 185.736 44.3183 185.928 43.5533C186.034 43.1289 186.072 40.2846 186.012 37.2329C185.908 31.9915 185.859 31.6011 185.127 30.1788C183.206 26.4457 177.786 25.5449 174.112 28.3479C173.161 29.0726 173.051 29.0938 172.662 28.6239C172.431 28.3443 171.559 27.7972 170.724 27.408C168.825 26.5228 166.744 26.5057 164.526 27.3573ZM45.5303 32.0468C43.302 33.6075 43.5613 38.1391 45.9435 39.2697C47.2763 39.9021 48.1721 39.8723 49.3461 39.1565C52.5942 37.1759 51.238 31.5517 47.5124 31.5517C46.8109 31.5517 45.9189 31.7745 45.5303 32.0468ZM66.5579 32.1315C63.8293 33.7951 64.7421 39.0414 67.8621 39.6267C70.8706 40.1911 73.0197 36.926 71.7416 33.7323C70.9019 31.6336 68.5603 30.9105 66.5579 32.1315ZM121.034 32.4223C120.162 33.2007 120.047 33.4985 119.95 35.2305C119.811 37.6914 120.487 38.937 122.249 39.4646C124.959 40.2767 126.853 38.6021 126.855 35.392C126.856 33.7763 126.763 33.5228 125.824 32.5839C124.95 31.7101 124.578 31.5517 123.4 31.5517C122.297 31.5517 121.806 31.7323 121.034 32.4223ZM142.72 31.864C141.021 32.5471 140.295 35.6646 141.328 37.8425C141.856 38.9537 143.204 39.7485 144.561 39.7485C145.839 39.7485 147.285 38.5074 147.708 37.0478C148.751 33.4421 145.974 30.5556 142.72 31.864ZM20.6418 36.8762C20.0801 37.1203 19.2945 37.3198 18.8962 37.3198C18.4979 37.3198 18.1721 37.4506 18.1721 37.6106C18.1721 38.2597 27.1282 50.4766 28.0101 51.0303C29.7997 52.1542 32.4516 51.1812 33.4743 49.0254C34.4367 46.9975 33.7124 46.0084 27.4454 40.7943C23.4153 37.4412 22.0829 36.4033 21.8321 36.4209C21.7392 36.4275 21.2037 36.6325 20.6418 36.8762ZM81.695 49.1699C81.3179 49.3214 80.8546 49.7853 80.6652 50.2009C80.1515 51.3284 80.9321 52.3297 82.664 52.7659C83.521 52.9818 84.0502 53.285 84.0502 53.5601C84.0502 54.1751 82.8389 54.4223 81.7867 54.0222C81.1139 53.7662 80.8559 53.7799 80.6646 54.081C80.2447 54.7429 80.3659 54.8931 81.5805 55.2204C83.0754 55.6229 84.5544 55.3291 85.1237 54.5164C86.0566 53.1842 85.4327 52.2261 83.2029 51.5664C82.2918 51.2968 81.9293 51.0373 81.9964 50.7018C82.0681 50.3433 82.4667 50.2222 83.5757 50.2222C85.2588 50.2222 85.7712 49.6408 84.5104 49.1614C83.5462 48.7947 82.6215 48.7977 81.695 49.1699ZM90.4255 49.0697C90.175 49.1608 89.5943 49.5855 89.1352 50.0133C87.933 51.1335 87.9501 53.1062 89.1723 54.3285C90.3034 55.4596 91.3836 55.7143 92.7913 55.1812C95.2716 54.2425 95.6736 51.0151 93.4923 49.5494C92.5053 48.8858 91.4039 48.7136 90.4255 49.0697ZM97.234 49.2595C97.149 49.4814 97.1189 50.8818 97.1678 52.3712C97.251 54.9174 97.2971 55.0853 97.9392 55.1767C98.5203 55.259 98.6223 55.1345 98.6223 54.3418C98.6223 53.5734 98.744 53.4098 99.3157 53.4098C99.7644 53.4098 100.199 53.7313 100.547 54.3206C100.919 54.9499 101.322 55.2313 101.852 55.2313H102.618L101.989 54.2134C101.361 53.1973 101.361 53.1943 101.964 52.6484C103.025 51.6891 102.708 50.0112 101.333 49.3002C100.235 48.7325 97.4468 48.7048 97.234 49.2595ZM121.619 49.0813C120.077 49.1611 119.57 49.2965 119.57 49.629C119.57 49.8718 119.775 50.0907 120.025 50.1159C120.276 50.1408 120.651 50.1751 120.86 50.1918C121.116 50.2122 121.289 51.0154 121.391 52.6508C121.53 54.8701 121.601 55.0877 122.214 55.1749C122.853 55.2659 122.888 55.1542 122.973 52.7462C123.042 50.7668 123.159 50.2134 123.516 50.1812C123.767 50.1587 124.211 50.1247 124.503 50.1053C125.165 50.0619 125.202 49.2892 124.554 49.0403C124.29 48.9389 123.983 48.8827 123.871 48.9155C123.759 48.9483 122.746 49.0227 121.619 49.0813ZM128.146 49.101L126.856 49.1945V52.2128V55.2313H129.133C130.876 55.2313 131.41 55.1324 131.41 54.8084C131.41 54.2623 130.743 54.017 129.26 54.017C128.284 54.017 128.07 53.911 128.07 53.4265C128.07 52.9374 128.318 52.8199 129.509 52.7434C130.574 52.6748 130.974 52.517 131.046 52.1369C131.125 51.7216 130.864 51.6053 129.683 51.5297C128.455 51.4514 128.222 51.3394 128.222 50.8293C128.222 50.3108 128.455 50.2088 129.816 50.1305C130.899 50.0679 131.41 49.9086 131.41 49.6323C131.41 49.1739 130.096 48.9602 128.146 49.101ZM135.082 49.2401C134.08 49.7559 133.713 50.4407 133.945 51.3648C134.097 51.9702 134.482 52.2598 135.656 52.6496C137.325 53.204 137.778 53.6345 137.141 54.0619C136.768 54.3115 135.749 54.2762 134.463 53.9696C134.223 53.9122 133.976 54.0911 133.915 54.3673C133.771 55.0228 135.624 55.6576 136.878 55.3822C138.09 55.116 138.696 54.4642 138.696 53.4253C138.696 52.3852 138.32 52.0537 136.627 51.601C135.655 51.3412 135.345 51.1187 135.421 50.7367C135.499 50.3454 135.847 50.2222 136.876 50.2222C137.881 50.2222 138.253 50.0956 138.325 49.7301C138.489 48.8916 136.38 48.5728 135.082 49.2401ZM104.105 49.5391C104.116 49.748 104.643 51.0798 105.277 52.4991C106.237 54.6475 106.557 55.095 107.189 55.1715C107.876 55.2547 108.053 55.0194 109.059 52.677C110.675 48.9152 110.622 49.1593 109.812 49.1611C109.22 49.1627 108.961 49.4917 108.315 51.0585C107.886 52.1014 107.408 52.931 107.253 52.9025C107.098 52.8737 106.629 52.0206 106.212 51.0066C105.601 49.5233 105.319 49.1627 104.77 49.1611C104.394 49.1602 104.095 49.3305 104.105 49.5391ZM113.194 52.1955V55.2313H115.645C117.816 55.2313 118.085 55.1706 117.995 54.7001C117.917 54.2893 117.533 54.1478 116.303 54.0771C114.96 53.9997 114.712 53.8931 114.712 53.394C114.712 52.8955 114.927 52.8026 116.078 52.8026C117.242 52.8026 117.445 52.7128 117.445 52.1955C117.445 51.6782 117.242 51.5883 116.078 51.5883C114.824 51.5883 114.712 51.5264 114.712 50.8293C114.712 50.1211 114.813 50.0704 116.23 50.0704C117.377 50.0704 117.748 49.959 117.748 49.615C117.748 49.2507 117.293 49.1596 115.471 49.1596H113.194V52.1955ZM90.6365 50.4004C88.6073 51.608 90.0411 54.7887 92.2409 53.9593C93.1623 53.612 93.4507 53.1891 93.4568 52.1776C93.4656 50.6888 91.856 49.6745 90.6365 50.4004ZM98.6223 51.1138C98.6223 52.1493 98.6678 52.1955 99.6943 52.1955C101.587 52.1955 101.482 50.3166 99.5783 50.1271C98.6669 50.0364 98.6223 50.0825 98.6223 51.1138Z" fill="white"/>
<path fill-rule="evenodd" clip-rule="evenodd" d="M91.9443 0.159832C69.2865 1.37873 52.5759 3.64044 37.6753 7.50448C33.9792 8.4632 33.0487 9.02817 33.0487 10.3135V11.1423L37.223 10.251C42.9586 9.02665 49.0088 8.02148 55.9093 7.14716C71.1356 5.21787 79.9788 4.6523 96.2103 4.57033C122.305 4.43827 146.249 6.98079 165.867 11.9675C186.009 17.0868 198.572 23.9136 202.327 31.7786C203.012 33.213 203.165 33.9604 203.183 35.9544C203.203 38.1511 203.098 38.6077 202.083 40.7356C196.598 52.2412 170.047 61.8794 132.928 65.8397C101.505 69.1925 66.502 67.8461 38.665 62.2133C33.6073 61.1899 29.5183 60.1784 23.8762 58.5551C21.5862 57.8963 19.4216 57.3572 19.0655 57.3572C18.3045 57.3572 16.5789 58.5066 16.8008 58.8654C17.0166 59.2145 21.9199 61.155 26.1442 62.5634C42.1608 67.9031 60.2645 71.1035 84.6582 72.9078C91.464 73.4111 118.107 73.4075 125.187 72.9023C145.996 71.4174 163.097 68.69 177.252 64.5992C202.013 57.4428 215.807 47.5046 215.807 36.822C215.807 32.9246 214.623 30.0964 211.505 26.5432C205.066 19.208 192.917 13.1229 174.852 8.18421C165.435 5.6098 152.02 3.13891 141.125 1.97223C138.704 1.71266 136.043 1.42275 135.211 1.32742C129.148 0.633124 120.166 0.24848 107.883 0.157405C100.202 0.10033 93.0296 0.10124 91.9443 0.159832ZM20.6427 36.877C20.081 37.1211 19.2954 37.3205 18.8971 37.3205C18.4987 37.3205 18.173 37.4514 18.173 37.6114C18.173 38.2604 27.1291 50.4773 28.011 51.0311C29.8006 52.1549 32.4525 51.1819 33.4752 49.0262C34.4376 46.9982 33.7132 46.0092 27.4463 40.7951C23.4162 37.442 22.0838 36.404 21.833 36.4216C21.7401 36.4283 21.2046 36.6332 20.6427 36.877Z" fill="#FFCC00"/>
</svg>
