<svg width="32" height="32" viewBox="0 0 32 32" fill="none" xmlns="http://www.w3.org/2000/svg">
<g clip-path="url(#clip0_90_372)">
<path d="M7.11068 16.8885V9.77734H4.44401C3.73677 9.77734 3.05849 10.0583 2.55839 10.5584C2.0583 11.0585 1.77734 11.7368 1.77734 12.444V28.444C1.77867 28.6091 1.82594 28.7705 1.91386 28.9103C2.00178 29.05 2.12687 29.1625 2.27512 29.2351C2.41795 29.3001 2.57542 29.3261 2.73154 29.3105C2.88767 29.2948 3.03687 29.2382 3.16401 29.1462L7.74179 25.7773H19.6885C20.0254 25.7873 20.3607 25.728 20.6737 25.6031C20.9868 25.4782 21.2709 25.2903 21.5083 25.0512C21.7458 24.812 21.9317 24.5266 22.0544 24.2127C22.1771 23.8988 22.2341 23.5631 22.2218 23.2262V22.2218H12.444C11.0295 22.2218 9.67297 21.6599 8.67277 20.6597C7.67258 19.6595 7.11068 18.3029 7.11068 16.8885Z" fill="#E00C00"/>
<path d="M27.5551 3.55566H12.444C11.7368 3.55566 11.0585 3.83662 10.5584 4.33671C10.0583 4.83681 9.77734 5.51509 9.77734 6.22233V16.889C9.77734 17.5962 10.0583 18.2745 10.5584 18.7746C11.0585 19.2747 11.7368 19.5557 12.444 19.5557H24.4885L28.7373 22.8534C28.8637 22.9468 29.0125 23.0051 29.1686 23.0223C29.3247 23.0394 29.4826 23.0149 29.6262 22.9512C29.7775 22.8792 29.9053 22.7659 29.995 22.6243C30.0846 22.4828 30.1324 22.3188 30.1329 22.1512V6.22233C30.1333 5.53022 29.8646 4.86508 29.3835 4.36746C28.9025 3.86984 28.2468 3.57873 27.5551 3.55566Z" fill="#E00C00"/>
</g>
<defs>
<clipPath id="clip0_90_372">
<rect width="32" height="32" fill="white"/>
</clipPath>
</defs>
</svg>
