<svg width="32" height="32" viewBox="0 0 32 32" fill="none" xmlns="http://www.w3.org/2000/svg">
<path fill-rule="evenodd" clip-rule="evenodd" d="M20.5577 7.52369C20.3738 7.22987 20.1029 7.00069 19.7827 6.86806C19.4625 6.73543 19.1088 6.70593 18.7711 6.78369L16.3737 7.33435C16.128 7.39082 15.8727 7.39082 15.6271 7.33435L13.2297 6.78369C12.8919 6.70593 12.5383 6.73543 12.2181 6.86806C11.8979 7.00069 11.6269 7.22987 11.4431 7.52369L10.1364 9.60902C10.0031 9.82235 9.82306 10.0024 9.60973 10.137L7.5244 11.4437C7.23109 11.6274 7.00225 11.8979 6.86964 12.2176C6.73704 12.5373 6.70724 12.8903 6.7844 13.2277L7.33506 15.6277C7.39133 15.8729 7.39133 16.1278 7.33506 16.373L6.7844 18.7717C6.70694 19.1093 6.73659 19.4626 6.86921 19.7826C7.00183 20.1025 7.23083 20.3732 7.5244 20.557L9.60973 21.8637C9.82306 21.997 10.0031 22.177 10.1377 22.3904L11.4444 24.4757C11.8204 25.077 12.5377 25.3744 13.2297 25.2157L15.6271 24.665C15.8727 24.6086 16.128 24.6086 16.3737 24.665L18.7724 25.2157C19.11 25.2931 19.4633 25.2635 19.7833 25.1309C20.1032 24.9983 20.3739 24.7693 20.5577 24.4757L21.8644 22.3904C21.9977 22.177 22.1777 21.997 22.3911 21.8637L24.4777 20.557C24.7713 20.373 25.0002 20.102 25.1326 19.7817C25.265 19.4615 25.2943 19.108 25.2164 18.7704L24.6671 16.373C24.6106 16.1273 24.6106 15.872 24.6671 15.6264L25.2177 13.2277C25.2953 12.8902 25.2659 12.537 25.1335 12.2171C25.0011 11.8971 24.7724 11.6263 24.4791 11.4424L22.3924 10.1357C22.1794 10.0021 21.9993 9.82206 21.8657 9.60902L20.5577 7.52369ZM19.8871 13.0264C19.9695 12.8747 19.99 12.697 19.9441 12.5306C19.8982 12.3642 19.7895 12.2221 19.641 12.1341C19.4924 12.0462 19.3155 12.0194 19.1476 12.0592C18.9796 12.099 18.8337 12.2024 18.7404 12.3477L15.2537 18.249L13.1484 16.233C13.0859 16.1689 13.0112 16.118 12.9287 16.0834C12.8461 16.0487 12.7574 16.0311 12.6679 16.0315C12.5784 16.0319 12.4899 16.0503 12.4076 16.0856C12.3254 16.121 12.2511 16.1725 12.1892 16.2372C12.1273 16.3019 12.079 16.3784 12.0473 16.4621C12.0156 16.5458 12.0011 16.635 12.0047 16.7245C12.0082 16.8139 12.0297 16.9018 12.0679 16.9827C12.1061 17.0637 12.1603 17.1361 12.2271 17.1957L14.9391 19.7944C15.0116 19.8638 15.099 19.9159 15.1945 19.9468C15.2901 19.9777 15.3914 19.9866 15.4909 19.9729C15.5903 19.9592 15.6854 19.9232 15.7691 19.8676C15.8527 19.8119 15.9226 19.7381 15.9737 19.6517L19.8871 13.0264Z" fill="#E00C00"/>
</svg>
