<svg width="32" height="32" viewBox="0 0 32 32" fill="none" xmlns="http://www.w3.org/2000/svg">
<path d="M15.9997 17.3333C19.6816 17.3333 22.6663 14.3486 22.6663 10.6667C22.6663 6.98477 19.6816 4 15.9997 4C12.3178 4 9.33301 6.98477 9.33301 10.6667C9.33301 14.3486 12.3178 17.3333 15.9997 17.3333Z" fill="#E00C00"/>
<path d="M26.6663 27.9997C26.6663 25.1707 25.5425 22.4576 23.5421 20.4572C21.5418 18.4568 18.8286 17.333 15.9997 17.333C13.1707 17.333 10.4576 18.4568 8.4572 20.4572C6.45681 22.4576 5.33301 25.1707 5.33301 27.9997" fill="#E00C00"/>
<path d="M15.9997 17.333C13.1707 17.333 10.4576 18.4568 8.4572 20.4572C6.45681 22.4576 5.33301 25.1707 5.33301 27.9997H26.6663C26.6663 25.1707 25.5425 22.4576 23.5421 20.4572C21.5418 18.4568 18.8286 17.333 15.9997 17.333Z" fill="#E00C00"/>
</svg>
