<svg width="40" height="40" viewBox="0 0 40 40" fill="none" xmlns="http://www.w3.org/2000/svg">
<path d="M20.0017 3.33301C29.2067 3.33301 36.6683 10.7947 36.6683 19.9997C36.6683 29.2047 29.2067 36.6663 20.0017 36.6663C17.0562 36.6714 14.1626 35.8919 11.6183 34.408L3.34165 36.6663L5.59499 28.3863C4.10992 25.8412 3.32982 22.9464 3.33499 19.9997C3.33499 10.7947 10.7967 3.33301 20.0017 3.33301ZM14.3217 12.1663L13.9883 12.1797C13.7728 12.1945 13.5622 12.2511 13.3683 12.3463C13.1876 12.4489 13.0226 12.5768 12.8783 12.7263C12.6783 12.9147 12.565 13.078 12.4433 13.2363C11.8269 14.0378 11.4949 15.0219 11.5 16.033C11.5033 16.8497 11.7167 17.6447 12.05 18.388C12.7317 19.8913 13.8533 21.483 15.3333 22.958C15.69 23.313 16.04 23.6697 16.4167 24.0013C18.2557 25.6203 20.4471 26.788 22.8167 27.4113L23.7633 27.5563C24.0717 27.573 24.38 27.5497 24.69 27.5347C25.1753 27.5091 25.6491 27.3777 26.0783 27.1497C26.2964 27.0369 26.5094 26.9146 26.7167 26.783C26.7167 26.783 26.7872 26.7352 26.925 26.633C27.15 26.4663 27.2883 26.348 27.475 26.153C27.615 26.0086 27.7317 25.8408 27.825 25.6497C27.955 25.378 28.085 24.8597 28.1383 24.428C28.1783 24.098 28.1667 23.918 28.1617 23.8063C28.155 23.628 28.0067 23.443 27.845 23.3647L26.875 22.9297C26.875 22.9297 25.425 22.298 24.5383 21.8947C24.4455 21.8543 24.3461 21.8311 24.245 21.8263C24.1309 21.8144 24.0157 21.8271 23.907 21.8637C23.7983 21.9002 23.6987 21.9596 23.615 22.038C23.6067 22.0347 23.495 22.1297 22.29 23.5897C22.2208 23.6826 22.1256 23.7528 22.0163 23.7914C21.9071 23.83 21.7888 23.8352 21.6767 23.8063C21.568 23.7774 21.4616 23.7406 21.3583 23.6963C21.1517 23.6097 21.08 23.5763 20.9383 23.5163C19.9814 23.0995 19.0957 22.5355 18.3133 21.8447C18.1033 21.6613 17.9083 21.4613 17.7083 21.268C17.0527 20.64 16.4812 19.9297 16.0083 19.1547L15.91 18.9963C15.8404 18.8893 15.7834 18.7747 15.74 18.6547C15.6767 18.4097 15.8417 18.213 15.8417 18.213C15.8417 18.213 16.2467 17.7697 16.435 17.5297C16.6183 17.2963 16.7733 17.0697 16.8733 16.908C17.07 16.5913 17.1317 16.2663 17.0283 16.0147C16.5617 14.8747 16.0794 13.7408 15.5817 12.613C15.4833 12.3897 15.1917 12.2297 14.9267 12.198C14.8367 12.1869 14.7467 12.178 14.6567 12.1713C14.4329 12.1585 14.2085 12.1607 13.985 12.178L14.3217 12.1663Z" fill="#E6E6EA"/>
</svg>
